<?xml version="1.0" encoding="UTF-8"?>
<svg width="96px" height="46px" viewBox="0 0 96 46" version="1.1" xmlns="http://www.w3.org/2000/svg" xmlns:xlink="http://www.w3.org/1999/xlink">
    <!-- Generator: Sketch 43 (38999) - http://www.bohemiancoding.com/sketch -->
    <title>jamfm_logo_mobil</title>
    <desc>Created with Sketch.</desc>
    <defs>
        <linearGradient x1="4.00807419%" y1="52.3730671%" x2="105.174806%" y2="46.1018564%" id="linearGradient-1">
            <stop stop-color="#FFED00" offset="0%"></stop>
            <stop stop-color="#FFCC00" offset="100%"></stop>
        </linearGradient>
    </defs>
    <g id="assets" stroke="none" stroke-width="1" fill="none" fill-rule="evenodd">
        <g transform="translate(-539.000000, -434.000000)" id="logo">
            <g transform="translate(327.000000, 434.000000)">
                <g id="jamfm_logo_desktop" transform="translate(213.000000, 4.000000)">
                    <g id="JAMFM_Logo_4c_pos">
                        <g id="Group">
                            <g transform="translate(0.000000, 33.565258)" id="Shape" fill="#000000">
                                <g transform="translate(14.958430, 0.000000)">
                                    <path d="M2.17079657,5.39962845 L1.58705296,0.784405484 L1.55056898,0.784405484 C1.53232699,0.948583376 1.49584302,1.18572922 1.44111705,1.49584302 C1.38639109,1.78771482 1.34990711,2.02486067 1.31342314,2.20728055 L0.63846958,5.41787044 L0.054725964,5.41787044 L1.14924524,0.200661868 L2.02486067,0.200661868 L2.55387832,4.48752905 L2.5903623,4.48752905 L4.94357875,0.200661868 L5.89216212,0.200661868 L4.81588483,5.41787044 L4.19565724,5.41787044 C4.48752905,4.01323736 4.72467489,2.93696007 4.88885278,2.18903856 C5.05303068,1.44111705 5.1624826,0.966825364 5.21720857,0.784405484 L5.19896658,0.784405484 L2.64508826,5.41787044 L2.17079657,5.41787044 L2.17079657,5.39962845 Z"></path>
                                    <path d="M10.616837,0.18241988 L9.8871575,3.63015561 C9.75946358,4.2503832 9.52231774,4.72467489 9.17571996,5.0165467 C8.82912219,5.30841851 8.37307249,5.4725964 7.78932888,5.4725964 C7.24206924,5.4725964 6.8407455,5.34490248 6.56711568,5.10775664 C6.31172785,4.85236881 6.16579194,4.50577104 6.16579194,4.04972134 C6.16579194,3.84905947 6.20227592,3.61191362 6.25700188,3.3382838 L6.93195544,0.200661868 L7.53394104,0.200661868 L6.85898749,3.37476778 C6.80426152,3.63015561 6.78601954,3.84905947 6.78601954,4.04972134 C6.78601954,4.32335116 6.87722948,4.54225501 7.04140737,4.7064329 C7.20558526,4.8706108 7.47921508,4.94357875 7.82581285,4.94357875 C8.22713659,4.94357875 8.55549237,4.83412682 8.77439623,4.63346495 C8.99330008,4.43280308 9.17571996,4.08620531 9.2669299,3.59367164 L9.99660942,0.200661868 L10.616837,0.200661868 L10.616837,0.18241988 Z"></path>
                                    <path d="M13.5355551,3.88554344 C13.5355551,4.37807712 13.3713772,4.77940086 13.0430214,5.05303068 C12.7146656,5.3266605 12.2403739,5.4725964 11.6383883,5.4725964 C11.3830005,5.4725964 11.1640967,5.45435441 10.9816768,5.41787044 C10.7992569,5.38138646 10.616837,5.3266605 10.4344171,5.25369254 L10.4344171,4.65170694 C10.8174989,4.85236881 11.2188226,4.94357875 11.6383883,4.94357875 C12.0214701,4.94357875 12.3315839,4.85236881 12.5504877,4.66994893 C12.7693916,4.48752905 12.8970855,4.2503832 12.8970855,3.92202742 C12.8970855,3.73960754 12.8423596,3.57542965 12.7146656,3.42949374 C12.5869717,3.28355784 12.3498259,3.11937995 12.0214701,2.93696007 C11.6566303,2.7362982 11.4194845,2.53563633 11.2735486,2.33497446 C11.1276127,2.1343126 11.0728867,1.89716675 11.0728867,1.62353693 C11.0728867,1.18572922 11.2370646,0.82088946 11.5471784,0.54725964 C11.8572922,0.27362982 12.2768579,0.127693916 12.7876336,0.127693916 C13.0247794,0.127693916 13.2436833,0.145935904 13.4443452,0.200661868 C13.645007,0.237145844 13.8639109,0.328355784 14.0828147,0.437807712 L13.8456689,0.966825364 C13.681491,0.875615424 13.5173131,0.802647472 13.3166512,0.747921508 C13.1159894,0.693195544 12.9335695,0.674953556 12.7876336,0.674953556 C12.4775198,0.674953556 12.222132,0.766163496 12.0214701,0.930341388 C11.8208082,1.09451928 11.7295983,1.31342314 11.7295983,1.60529494 C11.7295983,1.73298886 11.7478403,1.84244079 11.7843242,1.93365073 C11.8208082,2.02486067 11.8937762,2.11607061 11.9849861,2.18903856 C12.0761961,2.26200651 12.2403739,2.38970043 12.4957618,2.53563633 C12.8423596,2.7362982 13.0795054,2.90047609 13.2071993,3.02817001 C13.3348932,3.15586392 13.4261032,3.28355784 13.4808291,3.42949374 C13.4990711,3.52070368 13.5355551,3.68488158 13.5355551,3.88554344 Z"></path>
                                    <polygon points="13.9916048 5.39962845 15.1043661 0.18241988 15.7063517 0.18241988 14.5935904 5.39962845"></polygon>
                                    <path d="M19.1176034,5.39962845 L18.4608919,5.39962845 C18.296714,4.96182074 18.1142941,4.54225501 17.9318742,4.12268929 C17.7494543,3.70312356 17.5852764,3.26531585 17.4028566,2.82750814 L16.782629,3.28355784 L16.3448212,5.38138646 L15.7428356,5.38138646 L16.8373549,0.164177892 L17.4393405,0.164177892 L16.8920809,2.69981422 L19.3912332,0.164177892 L20.1391548,0.164177892 L17.8589063,2.4261844 L19.1176034,5.39962845 Z"></path>
                                    <path d="M25.5205412,2.26200651 C25.5205412,2.8822341 25.3928473,3.42949374 25.1374595,3.90378543 C24.8820716,4.37807712 24.5354739,4.74291688 24.0611822,4.99830471 C23.6051325,5.25369254 23.0578728,5.38138646 22.4376452,5.38138646 L21.1789481,5.38138646 L22.2734674,0.164177892 L23.4956805,0.164177892 C24.1523921,0.164177892 24.6449258,0.346597772 24.9915236,0.693195544 C25.3381213,1.07627729 25.5205412,1.58705296 25.5205412,2.26200651 Z M22.4741292,4.8706108 C22.9484209,4.8706108 23.3679866,4.76115887 23.7328264,4.54225501 C24.0976662,4.32335116 24.371296,4.01323736 24.5719578,3.63015561 C24.7726197,3.22883188 24.8638296,2.77278218 24.8638296,2.26200651 C24.8638296,1.75123085 24.7361357,1.3681491 24.4989899,1.09451928 C24.261844,0.839131448 23.8970043,0.693195544 23.4227126,0.693195544 L22.802485,0.693195544 L21.9086276,4.85236881 L22.4741292,4.85236881 L22.4741292,4.8706108 Z"></path>
                                    <polygon points="25.794171 5.39962845 26.9069323 0.18241988 27.5089179 0.18241988 26.3961566 5.39962845"></polygon>
                                    <polygon points="30.1540062 5.39962845 27.5271599 5.39962845 28.6216792 0.18241988 31.2485254 0.18241988 31.1390735 0.72967952 29.1142129 0.72967952 28.7676151 2.40794242 30.6465398 2.40794242 30.5370879 2.95520206 28.6581632 2.95520206 28.2568394 4.8706108 30.2634581 4.8706108"></polygon>
                                    <path d="M36.9765097,2.26200651 C36.9765097,2.8822341 36.8488158,3.42949374 36.5934279,3.90378543 C36.3380401,4.37807712 35.9914423,4.74291688 35.5171506,4.99830471 C35.0611009,5.25369254 34.5138413,5.38138646 33.8936137,5.38138646 L32.6531585,5.38138646 L33.7476778,0.164177892 L34.969891,0.164177892 C35.6266026,0.164177892 36.1191362,0.346597772 36.465734,0.693195544 C36.7940898,1.07627729 36.9765097,1.58705296 36.9765097,2.26200651 Z M33.9483397,4.8706108 C34.4226314,4.8706108 34.8421971,4.76115887 35.2070368,4.54225501 C35.5718766,4.32335116 35.8455064,4.01323736 36.0461683,3.63015561 C36.2468302,3.22883188 36.3380401,2.77278218 36.3380401,2.26200651 C36.3380401,1.75123085 36.2103462,1.3681491 35.9732003,1.09451928 C35.7360545,0.839131448 35.3712147,0.693195544 34.896923,0.693195544 L34.2584535,0.693195544 L33.3645961,4.85236881 L33.9483397,4.85236881 L33.9483397,4.8706108 Z"></path>
                                    <polygon points="37.2501395 5.39962845 38.3629008 0.18241988 38.9648864 0.18241988 37.8521251 5.39962845"></polygon>
                                    <path d="M42.0295404,0.63846958 C41.6099746,0.63846958 41.2451349,0.747921508 40.9167791,0.985067352 C40.5884233,1.2222132 40.3330355,1.55056898 40.1323736,2.00661868 C39.9499537,2.44442639 39.8405018,2.93696007 39.8405018,3.46597772 C39.8405018,3.90378543 39.9499537,4.26862519 40.1870996,4.52401302 C40.4242454,4.79764284 40.7343592,4.92533676 41.1356829,4.92533676 C41.4640387,4.92533676 41.8471205,4.85236881 42.2849282,4.72467489 L42.2849282,5.25369254 C42.0842663,5.3266605 41.8836045,5.38138646 41.7011846,5.41787044 C41.5187647,5.45435441 41.2998608,5.4725964 41.026231,5.4725964 C40.4424874,5.4725964 40.0046797,5.29017652 39.6763239,4.94357875 C39.3479681,4.59698098 39.1837902,4.1044473 39.1837902,3.48421971 C39.1837902,2.86399212 39.3114841,2.2802485 39.566872,1.75123085 C39.8222598,1.2222132 40.1506156,0.802647472 40.5701813,0.529017652 C40.989747,0.255387832 41.4640387,0.109451928 42.0112984,0.109451928 C42.4855901,0.109451928 42.8869138,0.200661868 43.2517536,0.401323736 L43.0146077,0.9120994 C42.7044939,0.72967952 42.3761381,0.63846958 42.0295404,0.63846958 Z"></path>
                                    <polygon points="46.5535534 5.39962845 45.9698098 5.39962845 46.4805854 2.95520206 44.127369 2.95520206 43.6165933 5.39962845 43.0146077 5.39962845 44.109127 0.18241988 44.7111126 0.18241988 44.2368209 2.40794242 46.5900374 2.40794242 47.064329 0.18241988 47.6663146 0.18241988"></polygon>
                                    <path d="M51.7707619,0.18241988 C52.7923133,0.18241988 53.3030889,0.583743616 53.3030889,1.38639109 C53.3030889,1.71474687 53.193637,2.00661868 52.9929751,2.22552254 C52.7923133,2.46266838 52.5004415,2.60860428 52.1173597,2.68157224 L52.1173597,2.71805621 C52.3909895,2.79102416 52.5916514,2.91871808 52.7375873,3.11937995 C52.8835232,3.30179983 52.9564912,3.52070368 52.9564912,3.7943335 C52.9564912,4.30510917 52.7740713,4.68819092 52.4092315,4.98006272 C52.0443918,5.27193453 51.5701001,5.41787044 50.9498725,5.41787044 L49.3080936,5.41787044 L50.4026128,0.200661868 L51.7707619,0.200661868 L51.7707619,0.18241988 Z M50.0560151,4.8706108 L51.0045985,4.8706108 C51.4424062,4.8706108 51.7707619,4.77940086 51.9896658,4.57873899 C52.2268116,4.39631911 52.3362636,4.12268929 52.3362636,3.77609152 C52.3362636,3.5024617 52.2450536,3.28355784 52.0626338,3.13762194 C51.8802139,2.99168603 51.624826,2.91871808 51.2964703,2.91871808 L50.4573388,2.91871808 L50.0560151,4.8706108 Z M50.5850327,2.40794242 L51.4606482,2.40794242 C51.8254879,2.40794242 52.1356017,2.31673248 52.3545056,2.15255458 C52.5734094,1.98837669 52.6828613,1.75123085 52.6828613,1.44111705 C52.6828613,1.18572922 52.6098934,1.00330934 52.4457155,0.893857412 C52.2815376,0.766163496 52.0443918,0.711437532 51.697794,0.711437532 L50.9498725,0.711437532 L50.5850327,2.40794242 Z"></path>
                                    <polygon points="56.0758711 5.39962845 53.4490248 5.39962845 54.5435441 0.18241988 57.1703904 0.18241988 57.0609385 0.72967952 55.0360778 0.72967952 54.68948 2.40794242 56.5684048 2.40794242 56.4589529 2.95520206 54.5800281 2.95520206 54.1787044 4.8706108 56.185323 4.8706108"></polygon>
                                    <path d="M61.0924178,5.39962845 L60.4904322,5.39962845 L60.3080123,1.95189272 C60.2897703,1.62353693 60.2715284,1.29518115 60.2715284,0.948583376 L60.2532864,0.948583376 C60.1985604,1.11276127 60.1255925,1.29518115 60.0343825,1.49584302 C59.9431726,1.69650488 59.341187,2.99168603 58.2466677,5.38138646 L57.6264401,5.38138646 L57.4075362,0.164177892 L58.0095218,0.164177892 L58.1189738,3.37476778 L58.1189738,3.68488158 C58.1189738,3.92202742 58.1007318,4.23214122 58.0824898,4.59698098 L58.1007318,4.59698098 C58.3196356,4.01323736 58.5020555,3.55718766 58.6479914,3.22883188 L60.0891085,0.145935904 L60.7275781,0.145935904 L60.873514,3.21058989 C60.8917559,3.57542965 60.9099979,3.94026941 60.9099979,4.28686718 L60.9099979,4.57873899 L60.9464819,4.57873899 C61.1289018,4.04972134 61.2748377,3.63015561 61.4207736,3.32004182 L62.8071647,0.145935904 L63.4638763,0.145935904 L61.0924178,5.39962845 Z"></path>
                                    <polygon points="65.5069789 5.39962845 62.8801326 5.39962845 63.9746519 0.18241988 66.6014982 0.18241988 66.4920463 0.72967952 64.4671856 0.72967952 64.1205878 2.40794242 65.9995126 2.40794242 65.8900607 2.95520206 64.0111359 2.95520206 63.6098122 4.8706108 65.6164308 4.8706108"></polygon>
                                    <path d="M68.9729566,2.66333025 L70.6147356,2.66333025 L70.0674759,5.19896658 C69.5567003,5.38138646 69.0641666,5.4725964 68.5716329,5.4725964 C67.9514053,5.4725964 67.4588716,5.30841851 67.1122739,4.96182074 C66.7656761,4.61522296 66.5832562,4.14093128 66.5832562,3.52070368 C66.5832562,2.8822341 66.7109501,2.29849049 66.948096,1.76947284 C67.1852418,1.24045518 67.5318396,0.839131448 67.9514053,0.54725964 C68.370971,0.255387832 68.8452627,0.109451928 69.3742804,0.109451928 C69.6479102,0.109451928 69.92154,0.127693916 70.1586859,0.18241988 C70.3958317,0.237145844 70.6512195,0.310113796 70.8883654,0.419565724 L70.6512195,0.966825364 C70.4687997,0.893857412 70.2681378,0.82088946 70.0674759,0.747921508 C69.8485721,0.693195544 69.6296682,0.656711568 69.3742804,0.656711568 C68.9729566,0.656711568 68.6081169,0.784405484 68.2797611,1.02155133 C67.9514053,1.25869717 67.6960175,1.60529494 67.5135976,2.02486067 C67.3311777,2.44442639 67.2399678,2.93696007 67.2399678,3.48421971 C67.2399678,3.94026941 67.3676617,4.28686718 67.6048075,4.54225501 C67.8419534,4.79764284 68.1885512,4.92533676 68.6263589,4.92533676 C68.9911986,4.92533676 69.3013124,4.8706108 69.5567003,4.77940086 L69.903298,3.1923479 L68.8817467,3.1923479 L68.9729566,2.66333025 Z"></path>
                                    <polygon points="72.4754183 5.39962845 71.8551907 5.39962845 72.8402581 0.72967952 71.399141 0.72967952 71.508593 0.200661868 75.0110547 0.200661868 74.9016027 0.72967952 73.4422437 0.72967952"></polygon>
                                </g>
                                <path d="M2.09782862,0.109451928 C1.6782629,0.109451928 1.33166512,0.200661868 1.03979332,0.383081748 C0.747921508,0.565501628 0.510775664,0.802647472 0.36483976,1.13100326 C0.200661868,1.45935904 0.127693916,1.8241988 0.127693916,2.24376452 C0.127693916,2.68157224 0.237145844,3.046412 0.437807712,3.30179983 C0.63846958,3.55718766 0.930341388,3.68488158 1.29518115,3.68488158 C1.53232699,3.68488158 1.73298886,3.63015561 1.89716675,3.53894567 C2.07958663,3.44773573 2.22552254,3.28355784 2.37145844,3.06465398 L2.40794242,3.06465398 C2.31673248,3.52070368 2.1343126,3.86730146 1.89716675,4.06796332 C1.64177892,4.26862519 1.29518115,4.37807712 0.857373436,4.37807712 C0.601985604,4.37807712 0.346597772,4.34159314 0.127693916,4.2503832 L0.127693916,5.36314447 C0.36483976,5.43611242 0.601985604,5.4725964 0.875615424,5.4725964 C1.45935904,5.4725964 1.98837669,5.34490248 2.40794242,5.07127266 C2.84575013,4.79764284 3.17410591,4.39631911 3.42949374,3.86730146 C3.66663959,3.3382838 3.7943335,2.71805621 3.7943335,2.02486067 C3.7943335,1.42287506 3.6483976,0.948583376 3.35652579,0.620227592 C3.046412,0.27362982 2.64508826,0.109451928 2.09782862,0.109451928 Z M2.29849049,2.33497446 C2.17079657,2.49915236 2.02486067,2.5903623 1.86068278,2.5903623 C1.64177892,2.5903623 1.53232699,2.4261844 1.53232699,2.07958663 C1.53232699,1.84244079 1.58705296,1.62353693 1.69650488,1.45935904 C1.80595681,1.29518115 1.95189272,1.20397121 2.1343126,1.20397121 C2.24376452,1.20397121 2.31673248,1.25869717 2.38970043,1.34990711 C2.46266838,1.44111705 2.48091037,1.56881097 2.48091037,1.73298886 C2.48091037,1.95189272 2.40794242,2.17079657 2.29849049,2.33497446 Z M7.26031122,3.10113796 C7.07789134,2.90047609 6.8407455,2.75454019 6.54887369,2.69981422 L6.54887369,2.66333025 C6.93195544,2.5903623 7.24206924,2.4261844 7.4427311,2.20728055 C7.66163496,1.9701347 7.7528449,1.6782629 7.7528449,1.33166512 C7.7528449,0.948583376 7.606909,0.656711568 7.31503719,0.437807712 C7.02316538,0.218903856 6.64008363,0.109451928 6.16579194,0.109451928 C5.83743616,0.109451928 5.52732236,0.145935904 5.25369254,0.237145844 C4.98006272,0.310113796 4.68819092,0.4560497 4.37807712,0.63846958 L4.94357875,1.514085 C5.30841851,1.31342314 5.63677429,1.2222132 5.91040411,1.2222132 C6.05634002,1.2222132 6.18403393,1.25869717 6.25700188,1.31342314 C6.34821182,1.38639109 6.3846958,1.45935904 6.3846958,1.56881097 C6.3846958,1.76947284 6.29348586,1.91540874 6.09282399,2.02486067 C5.89216212,2.1343126 5.6185323,2.18903856 5.27193453,2.18903856 L4.99830471,2.18903856 L4.81588483,3.22883188 L5.10775664,3.22883188 C5.36314447,3.22883188 5.56380634,3.24707386 5.69150026,3.26531585 C5.83743616,3.30179983 5.9286461,3.3382838 6.00161405,3.41125176 C6.074582,3.48421971 6.09282399,3.57542965 6.09282399,3.70312356 C6.09282399,3.90378543 6.01985604,4.06796332 5.85567815,4.17741525 C5.69150026,4.28686718 5.45435441,4.34159314 5.12599863,4.34159314 C4.63346495,4.34159314 4.17741525,4.21389923 3.77609152,3.97675338 L3.77609152,5.1624826 C3.94026941,5.25369254 4.12268929,5.3266605 4.37807712,5.36314447 C4.61522296,5.41787044 4.8706108,5.43611242 5.14424062,5.43611242 C5.87392014,5.43611242 6.43942176,5.29017652 6.85898749,5.0165467 C7.27855321,4.74291688 7.49745707,4.34159314 7.49745707,3.83081748 C7.51569906,3.55718766 7.42448912,3.30179983 7.26031122,3.10113796 Z M7.91702279,4.54225501 L7.77108689,4.94357875 C7.55218303,5.58204833 7.36976315,6.03809803 7.24206924,6.32996984 L8.26362056,6.32996984 C8.59197635,5.81919417 8.90209014,5.25369254 9.17571996,4.61522296 L9.13923599,4.52401302 L7.91702279,4.52401302 L7.91702279,4.54225501 Z M11.7660823,1.33166512 C11.9849861,1.25869717 12.2586159,1.20397121 12.6052137,1.20397121 C12.8058756,1.20397121 13.0247794,1.24045518 13.2619253,1.29518115 L13.4808291,0.218903856 C13.1707153,0.145935904 12.8970855,0.109451928 12.6416977,0.109451928 C11.8025662,0.109451928 11.1276127,0.328355784 10.616837,0.766163496 C10.1060614,1.20397121 9.75946358,1.87892476 9.55880171,2.80926615 C9.50407575,3.15586392 9.46759177,3.46597772 9.46759177,3.72136555 C9.46759177,4.30510917 9.61352768,4.74291688 9.8871575,5.03478869 C10.1790293,5.3266605 10.580353,5.4725964 11.1093707,5.4725964 C11.5106944,5.4725964 11.8572922,5.38138646 12.167406,5.21720857 C12.4775198,5.03478869 12.7146656,4.79764284 12.8606015,4.46928706 C13.0247794,4.14093128 13.0977474,3.77609152 13.0977474,3.35652579 C13.0977474,2.8822341 13.0065374,2.53563633 12.8058756,2.29849049 C12.6052137,2.06134464 12.3133419,1.93365073 11.9302602,1.93365073 C11.4559685,1.93365073 11.0911287,2.1343126 10.8357409,2.53563633 L10.7992569,2.53563633 C10.9087088,2.17079657 11.0364027,1.91540874 11.1823386,1.73298886 C11.3647585,1.53232699 11.5471784,1.40463308 11.7660823,1.33166512 Z M10.9999188,3.24707386 C11.1093707,3.06465398 11.2370646,2.99168603 11.4012425,2.99168603 C11.6201464,2.99168603 11.7295983,3.13762194 11.7295983,3.44773573 C11.7295983,3.70312356 11.6748723,3.90378543 11.5836624,4.08620531 C11.4742105,4.26862519 11.3465165,4.35983513 11.2005806,4.35983513 C11.0911287,4.35983513 10.9999188,4.32335116 10.9451928,4.23214122 C10.8904668,4.15917326 10.8539829,4.03147935 10.8539829,3.88554344 C10.8357409,3.63015561 10.8904668,3.42949374 10.9999188,3.24707386 Z"></path>
                            </g>
                            <g transform="translate(49.618207, 0.000000)" id="Shape">
                                <polygon fill="#434342" points="4.68819092 2.84575013 0.018241988 12.9882955 5.21720857 12.7693916 2.20728055 17.5305505 7.04140737 17.6400024 3.44773573 30.8289597 14.0645727 11.4559685 9.37638183 12.149164 12.0761961 6.27524387 7.2967952 7.35152116 9.5770437 1.38639109"></polygon>
                                <polygon fill="url(#linearGradient-1)" points="2.38970043 1.95189272 0.018241988 12.9882955 3.72136555 12.11268 2.20728055 17.5305505 5.9286461 17.0015328 3.44773573 30.8289597 12.4410358 10.0878194 7.82581285 11.1640967 10.0330934 4.92533676 5.34490248 6.3846958 7.13261731 0.09120994"></polygon>
                            </g>
                            <g transform="translate(61.475500, 12.951811)" id="Shape" fill="#000000">
                                <polygon points="4.50577104 16.691419 0.054725964 16.691419 3.57542965 0.036483976 13.3896192 0.036483976 12.6234557 3.6483976 7.26031122 3.6483976 6.60359966 6.82250351 11.5654204 6.82250351 10.7810149 10.4526591 5.7827102 10.4526591"></polygon>
                                <path d="M18.26023,16.691419 L18.26023,4.74291688 L18.16902,4.74291688 C17.6582444,7.91702279 17.3298886,9.85067352 17.1839527,10.580353 L15.8887715,16.691419 L11.9302602,16.691419 L15.4509638,0.036483976 L21.3613679,0.036483976 L21.3613679,11.8572922 L21.4525779,11.8572922 L26.9069323,0.036483976 L32.9085464,0.036483976 L29.3513587,16.691419 L25.3563633,16.691419 L26.6880284,10.4344171 C27.0711102,8.70142828 27.4724339,7.04140737 27.9102416,5.4725964 L28.0744195,4.74291688 L27.9832096,4.74291688 L22.4923712,16.691419 L18.26023,16.691419 Z"></path>
                            </g>
                            <g transform="translate(1.824199, 12.951811)" id="Shape" fill="#000000">
                                <path d="M19.5371691,13.5720391 L14.4294125,13.5720391 L13.0065374,16.691419 L8.37307249,16.691419 L16.8555969,0.036483976 L22.5835811,0.036483976 L23.9882142,16.691419 L19.6466211,16.691419 L19.5371691,13.5720391 Z M16.0529494,10.0148514 L19.3912332,10.0148514 L19.1905714,5.18072459 L19.1723294,4.19565724 C19.1723294,3.63015561 19.1905714,3.13762194 19.2088134,2.69981422 C19.0263935,3.35652579 18.7892476,3.97675338 18.5156178,4.59698098 L16.0529494,10.0148514 Z"></path>
                                <path d="M31.3762194,16.691419 L31.3762194,4.74291688 L31.2850094,4.74291688 C30.7742338,7.91702279 30.445878,9.85067352 30.2999421,10.580353 L29.0047609,16.691419 L25.0462495,16.691419 L28.5669532,0.036483976 L34.4773573,0.036483976 L34.4773573,11.8572922 L34.5685673,11.8572922 L40.0229217,0.036483976 L46.0245357,0.036483976 L42.4673481,16.691419 L38.4723527,16.691419 L39.8040178,10.4344171 C40.1870996,8.70142828 40.5884233,7.04140737 41.026231,5.4725964 L41.1904089,4.74291688 L41.099199,4.74291688 L35.6083606,16.691419 L31.3762194,16.691419 Z"></path>
                                <path d="M6.96843942,0.036483976 L4.77940086,10.2519973 C4.560497,11.2917906 4.23214122,12.0214701 3.83081748,12.4775198 C3.41125176,12.9335695 2.79102416,13.1524733 1.98837669,13.1524733 C1.62353693,13.1524733 1.20397121,13.1159894 0.747921508,13.0247794 L0,16.5089991 C0.82088946,16.727903 1.62353693,16.8373549 2.4261844,16.8373549 C3.7943335,16.8373549 4.90709477,16.6366931 5.76446821,16.2536113 C6.62184164,15.8522876 7.31503719,15.23206 7.84405484,14.3746865 C8.37307249,13.5173131 8.8108802,12.3315839 9.13923599,10.8174989 L11.4559685,0.036483976 L6.96843942,0.036483976 L6.96843942,0.036483976 Z"></path>
                            </g>
                        </g>
                    </g>
                </g>
            </g>
        </g>
    </g>
</svg>