<?xml version="1.0" encoding="UTF-8"?>
<svg width="192px" height="92px" viewBox="0 0 192 92" version="1.1" xmlns="http://www.w3.org/2000/svg" xmlns:xlink="http://www.w3.org/1999/xlink">
    <!-- Generator: Sketch 43 (38999) - http://www.bohemiancoding.com/sketch -->
    <title>jamfm_logo_desktop</title>
    <desc>Created with Sketch.</desc>
    <defs>
        <linearGradient x1="4.00807419%" y1="52.3730671%" x2="105.174806%" y2="46.1018564%" id="linearGradient-1">
            <stop stop-color="#FFED00" offset="0%"></stop>
            <stop stop-color="#FFCC00" offset="100%"></stop>
        </linearGradient>
    </defs>
    <g id="assets" stroke="none" stroke-width="1" fill="none" fill-rule="evenodd">
        <g transform="translate(-327.000000, -434.000000)" id="logo">
            <g transform="translate(327.000000, 434.000000)">
                <g id="jamfm_logo_desktop" transform="translate(2.000000, 9.000000)">
                    <g id="JAMFM_Logo_4c_pos">
                        <g id="Group">
                            <g transform="translate(0.000000, 66.779923)" id="Shape" fill="#000000">
                                <g transform="translate(29.760618, 0.000000)">
                                    <path d="M4.31891892,10.7428571 L3.15752896,1.56061776 L3.08494208,1.56061776 C3.04864865,1.88725869 2.97606178,2.35907336 2.86718147,2.97606178 C2.75830116,3.55675676 2.68571429,4.02857143 2.61312741,4.39150579 L1.27027027,10.7791506 L0.108880309,10.7791506 L2.28648649,0.399227799 L4.02857143,0.399227799 L5.08108108,8.92818533 L5.15366795,8.92818533 L9.83552124,0.399227799 L11.7227799,0.399227799 L9.58146718,10.7791506 L8.34749035,10.7791506 C8.92818533,7.98455598 9.4,5.84324324 9.72664093,4.35521236 C10.0532819,2.86718147 10.2710425,1.92355212 10.3799228,1.56061776 L10.3436293,1.56061776 L5.26254826,10.7791506 L4.31891892,10.7791506 L4.31891892,10.7428571 Z"></path>
                                    <path d="M21.1227799,0.362934363 L19.6710425,7.22239382 C19.4169884,8.45637066 18.9451737,9.4 18.2555985,9.98069498 C17.5660232,10.56139 16.6586873,10.8880309 15.4972973,10.8880309 C14.4084942,10.8880309 13.6100386,10.6339768 13.0656371,10.1621622 C12.557529,9.65405405 12.2671815,8.96447876 12.2671815,8.05714286 C12.2671815,7.65791506 12.3397683,7.18610039 12.4486486,6.64169884 L13.7915058,0.399227799 L14.9891892,0.399227799 L13.646332,6.71428571 C13.5374517,7.22239382 13.5011583,7.65791506 13.5011583,8.05714286 C13.5011583,8.6015444 13.6826255,9.03706564 14.0092664,9.36370656 C14.3359073,9.69034749 14.8803089,9.83552124 15.5698842,9.83552124 C16.3683398,9.83552124 17.0216216,9.61776062 17.4571429,9.21853282 C17.8926641,8.81930502 18.2555985,8.12972973 18.4370656,7.14980695 L19.8888031,0.399227799 L21.1227799,0.399227799 L21.1227799,0.362934363 Z"></path>
                                    <path d="M26.9297297,7.73050193 C26.9297297,8.71042471 26.6030888,9.50888031 25.9498069,10.0532819 C25.2965251,10.5976834 24.3528958,10.8880309 23.1552124,10.8880309 C22.6471042,10.8880309 22.211583,10.8517375 21.8486486,10.7791506 C21.4857143,10.7065637 21.1227799,10.5976834 20.7598456,10.4525097 L20.7598456,9.25482625 C21.5220077,9.65405405 22.3204633,9.83552124 23.1552124,9.83552124 C23.9173745,9.83552124 24.5343629,9.65405405 24.9698842,9.29111969 C25.4054054,8.92818533 25.6594595,8.45637066 25.6594595,7.8030888 C25.6594595,7.44015444 25.5505792,7.11351351 25.2965251,6.82316602 C25.042471,6.53281853 24.5706564,6.20617761 23.9173745,5.84324324 C23.1915058,5.44401544 22.7196911,5.04478764 22.4293436,4.64555985 C22.1389961,4.24633205 22.0301158,3.77451737 22.0301158,3.23011583 C22.0301158,2.35907336 22.3567568,1.63320463 22.9737452,1.08880309 C23.5907336,0.544401544 24.4254826,0.254054054 25.4416988,0.254054054 C25.9135135,0.254054054 26.3490347,0.29034749 26.7482625,0.399227799 C27.1474903,0.471814672 27.5830116,0.653281853 28.0185328,0.871042471 L27.5467181,1.92355212 C27.2200772,1.74208494 26.8934363,1.5969112 26.4942085,1.48803089 C26.0949807,1.37915058 25.7320463,1.34285714 25.4416988,1.34285714 C24.8247104,1.34285714 24.3166023,1.52432432 23.9173745,1.85096525 C23.5181467,2.17760618 23.3366795,2.61312741 23.3366795,3.19382239 C23.3366795,3.44787645 23.372973,3.66563707 23.4455598,3.84710425 C23.5181467,4.02857143 23.6633205,4.21003861 23.8447876,4.35521236 C24.0262548,4.5003861 24.3528958,4.75444015 24.8610039,5.04478764 C25.5505792,5.44401544 26.0223938,5.77065637 26.2764479,6.02471042 C26.5305019,6.27876448 26.7119691,6.53281853 26.8208494,6.82316602 C26.8571429,7.0046332 26.9297297,7.33127413 26.9297297,7.73050193 Z"></path>
                                    <polygon points="27.8370656 10.7428571 30.0509653 0.362934363 31.2486486 0.362934363 29.034749 10.7428571"></polygon>
                                    <path d="M38.0355212,10.7428571 L36.7289575,10.7428571 C36.4023166,9.87181467 36.0393822,9.03706564 35.6764479,8.2023166 C35.3135135,7.36756757 34.9868726,6.4965251 34.6239382,5.62548263 L33.3899614,6.53281853 L32.5189189,10.7065637 L31.3212355,10.7065637 L33.4988417,0.326640927 L34.6965251,0.326640927 L33.607722,5.37142857 L38.5799228,0.326640927 L40.0679537,0.326640927 L35.5312741,4.82702703 L38.0355212,10.7428571 Z"></path>
                                    <path d="M50.7745174,4.5003861 C50.7745174,5.73436293 50.5204633,6.82316602 50.0123552,7.76679537 C49.5042471,8.71042471 48.8146718,9.43629344 47.8710425,9.94440154 C46.9637066,10.4525097 45.8749035,10.7065637 44.6409266,10.7065637 L42.1366795,10.7065637 L44.3142857,0.326640927 L46.7459459,0.326640927 C48.0525097,0.326640927 49.0324324,0.68957529 49.7220077,1.37915058 C50.411583,2.14131274 50.7745174,3.15752896 50.7745174,4.5003861 Z M44.7135135,9.69034749 C45.6571429,9.69034749 46.4918919,9.47258687 47.2177606,9.03706564 C47.9436293,8.6015444 48.4880309,7.98455598 48.8872587,7.22239382 C49.2864865,6.42393822 49.4679537,5.51660232 49.4679537,4.5003861 C49.4679537,3.48416988 49.2138996,2.72200772 48.7420849,2.17760618 C48.2702703,1.66949807 47.5444015,1.37915058 46.6007722,1.37915058 L45.3667954,1.37915058 L43.588417,9.65405405 L44.7135135,9.65405405 L44.7135135,9.69034749 Z"></path>
                                    <polygon points="51.3189189 10.7428571 53.5328185 0.362934363 54.7305019 0.362934363 52.5166023 10.7428571"></polygon>
                                    <polygon points="59.9930502 10.7428571 54.7667954 10.7428571 56.9444015 0.362934363 62.1706564 0.362934363 61.9528958 1.45173745 57.9243243 1.45173745 57.234749 4.79073359 60.972973 4.79073359 60.7552124 5.87953668 57.0169884 5.87953668 56.2185328 9.69034749 60.2108108 9.69034749"></polygon>
                                    <path d="M73.5667954,4.5003861 C73.5667954,5.73436293 73.3127413,6.82316602 72.8046332,7.76679537 C72.2965251,8.71042471 71.6069498,9.43629344 70.6633205,9.94440154 C69.7559846,10.4525097 68.6671815,10.7065637 67.4332046,10.7065637 L64.965251,10.7065637 L67.1428571,0.326640927 L69.5745174,0.326640927 C70.8810811,0.326640927 71.8610039,0.68957529 72.5505792,1.37915058 C73.203861,2.14131274 73.5667954,3.15752896 73.5667954,4.5003861 Z M67.5420849,9.69034749 C68.4857143,9.69034749 69.3204633,9.47258687 70.046332,9.03706564 C70.7722008,8.6015444 71.3166023,7.98455598 71.7158301,7.22239382 C72.1150579,6.42393822 72.2965251,5.51660232 72.2965251,4.5003861 C72.2965251,3.48416988 72.042471,2.72200772 71.5706564,2.17760618 C71.0988417,1.66949807 70.372973,1.37915058 69.4293436,1.37915058 L68.1590734,1.37915058 L66.380695,9.65405405 L67.5420849,9.65405405 L67.5420849,9.69034749 Z"></path>
                                    <polygon points="74.1111969 10.7428571 76.3250965 0.362934363 77.5227799 0.362934363 75.3088803 10.7428571"></polygon>
                                    <path d="M83.6200772,1.27027027 C82.7853282,1.27027027 82.0594595,1.48803089 81.4061776,1.95984556 C80.7528958,2.43166023 80.2447876,3.08494208 79.8455598,3.99227799 C79.4826255,4.86332046 79.2648649,5.84324324 79.2648649,6.8957529 C79.2648649,7.76679537 79.4826255,8.49266409 79.9544402,9.0007722 C80.4262548,9.54517375 81.0432432,9.7992278 81.8416988,9.7992278 C82.4949807,9.7992278 83.2571429,9.65405405 84.1281853,9.4 L84.1281853,10.4525097 C83.7289575,10.5976834 83.3297297,10.7065637 82.9667954,10.7791506 C82.603861,10.8517375 82.1683398,10.8880309 81.6239382,10.8880309 C80.4625483,10.8880309 79.5915058,10.5250965 78.9382239,9.83552124 C78.2849421,9.14594595 77.9583012,8.16602317 77.9583012,6.93204633 C77.9583012,5.6980695 78.2123552,4.53667954 78.7204633,3.48416988 C79.2285714,2.43166023 79.8818533,1.5969112 80.7166023,1.05250965 C81.5513514,0.508108108 82.4949807,0.217760618 83.5837838,0.217760618 C84.5274131,0.217760618 85.3258687,0.399227799 86.0517375,0.798455598 L85.5799228,1.81467181 C84.9629344,1.45173745 84.3096525,1.27027027 83.6200772,1.27027027 Z"></path>
                                    <polygon points="92.6208494 10.7428571 91.4594595 10.7428571 92.4756757 5.87953668 87.7938224 5.87953668 86.7776062 10.7428571 85.5799228 10.7428571 87.757529 0.362934363 88.9552124 0.362934363 88.011583 4.79073359 92.6934363 4.79073359 93.6370656 0.362934363 94.834749 0.362934363"></polygon>
                                    <path d="M103.000772,0.362934363 C105.033205,0.362934363 106.049421,1.16138996 106.049421,2.75830116 C106.049421,3.41158301 105.83166,3.99227799 105.432432,4.42779923 C105.033205,4.8996139 104.45251,5.18996139 103.690347,5.33513514 L103.690347,5.40772201 C104.234749,5.55289575 104.633977,5.80694981 104.924324,6.20617761 C105.214672,6.56911197 105.359846,7.0046332 105.359846,7.54903475 C105.359846,8.56525097 104.996911,9.32741313 104.271042,9.90810811 C103.545174,10.4888031 102.601544,10.7791506 101.367568,10.7791506 L98.1011583,10.7791506 L100.278764,0.399227799 L103.000772,0.399227799 L103.000772,0.362934363 Z M99.5891892,9.69034749 L101.476448,9.69034749 C102.34749,9.69034749 103.000772,9.50888031 103.436293,9.10965251 C103.908108,8.74671815 104.125869,8.2023166 104.125869,7.51274131 C104.125869,6.96833977 103.944402,6.53281853 103.581467,6.24247104 C103.218533,5.95212355 102.710425,5.80694981 102.057143,5.80694981 L100.387645,5.80694981 L99.5891892,9.69034749 Z M100.641699,4.79073359 L102.383784,4.79073359 C103.109653,4.79073359 103.726641,4.60926641 104.162162,4.28262548 C104.597683,3.95598456 104.815444,3.48416988 104.815444,2.86718147 C104.815444,2.35907336 104.67027,1.996139 104.343629,1.77837838 C104.016988,1.52432432 103.545174,1.41544402 102.855598,1.41544402 L101.367568,1.41544402 L100.641699,4.79073359 Z"></path>
                                    <polygon points="111.566023 10.7428571 106.339768 10.7428571 108.517375 0.362934363 113.743629 0.362934363 113.525869 1.45173745 109.497297 1.45173745 108.807722 4.79073359 112.545946 4.79073359 112.328185 5.87953668 108.589961 5.87953668 107.791506 9.69034749 111.783784 9.69034749"></polygon>
                                    <path d="M121.546718,10.7428571 L120.349035,10.7428571 L119.9861,3.88339768 C119.949807,3.23011583 119.913514,2.57683398 119.913514,1.88725869 L119.87722,1.88725869 C119.76834,2.21389961 119.623166,2.57683398 119.441699,2.97606178 C119.260232,3.37528958 118.062548,5.95212355 115.884942,10.7065637 L114.650965,10.7065637 L114.215444,0.326640927 L115.413127,0.326640927 L115.630888,6.71428571 L115.630888,7.33127413 C115.630888,7.8030888 115.594595,8.42007722 115.558301,9.14594595 L115.594595,9.14594595 C116.030116,7.98455598 116.39305,7.07722008 116.683398,6.42393822 L119.550579,0.29034749 L120.820849,0.29034749 L121.111197,6.38764479 C121.14749,7.11351351 121.183784,7.83938224 121.183784,8.52895753 L121.183784,9.10965251 L121.256371,9.10965251 C121.619305,8.05714286 121.909653,7.22239382 122.2,6.60540541 L124.958301,0.29034749 L126.264865,0.29034749 L121.546718,10.7428571 Z"></path>
                                    <polygon points="130.32973 10.7428571 125.103475 10.7428571 127.281081 0.362934363 132.507336 0.362934363 132.289575 1.45173745 128.261004 1.45173745 127.571429 4.79073359 131.309653 4.79073359 131.091892 5.87953668 127.353668 5.87953668 126.555212 9.69034749 130.54749 9.69034749"></polygon>
                                    <path d="M137.225483,5.2988417 L140.491892,5.2988417 L139.403089,10.3436293 C138.386873,10.7065637 137.40695,10.8880309 136.427027,10.8880309 C135.19305,10.8880309 134.213127,10.56139 133.523552,9.87181467 C132.833977,9.18223938 132.471042,8.23861004 132.471042,7.0046332 C132.471042,5.73436293 132.725097,4.57297297 133.196911,3.52046332 C133.668726,2.46795367 134.358301,1.66949807 135.19305,1.08880309 C136.027799,0.508108108 136.971429,0.217760618 138.023938,0.217760618 C138.56834,0.217760618 139.112741,0.254054054 139.584556,0.362934363 C140.056371,0.471814672 140.564479,0.616988417 141.036293,0.834749035 L140.564479,1.92355212 C140.201544,1.77837838 139.802317,1.63320463 139.403089,1.48803089 C138.967568,1.37915058 138.532046,1.30656371 138.023938,1.30656371 C137.225483,1.30656371 136.499614,1.56061776 135.846332,2.03243243 C135.19305,2.5042471 134.684942,3.19382239 134.322008,4.02857143 C133.959073,4.86332046 133.777606,5.84324324 133.777606,6.93204633 C133.777606,7.83938224 134.03166,8.52895753 134.503475,9.03706564 C134.97529,9.54517375 135.664865,9.7992278 136.535907,9.7992278 C137.261776,9.7992278 137.878764,9.69034749 138.386873,9.50888031 L139.076448,6.35135135 L137.044015,6.35135135 L137.225483,5.2988417 Z"></path>
                                    <polygon points="144.193822 10.7428571 142.959846 10.7428571 144.919691 1.45173745 142.05251 1.45173745 142.27027 0.399227799 149.23861 0.399227799 149.020849 1.45173745 146.117375 1.45173745"></polygon>
                                </g>
                                <path d="M4.17374517,0.217760618 C3.33899614,0.217760618 2.64942085,0.399227799 2.06872587,0.762162162 C1.48803089,1.12509653 1.01621622,1.5969112 0.725868726,2.25019305 C0.399227799,2.9034749 0.254054054,3.62934363 0.254054054,4.46409266 C0.254054054,5.33513514 0.471814672,6.06100386 0.871042471,6.56911197 C1.27027027,7.07722008 1.85096525,7.33127413 2.57683398,7.33127413 C3.04864865,7.33127413 3.44787645,7.22239382 3.77451737,7.04092664 C4.13745174,6.85945946 4.42779923,6.53281853 4.71814672,6.0972973 L4.79073359,6.0972973 C4.60926641,7.0046332 4.24633205,7.69420849 3.77451737,8.09343629 C3.26640927,8.49266409 2.57683398,8.71042471 1.70579151,8.71042471 C1.1976834,8.71042471 0.68957529,8.63783784 0.254054054,8.45637066 L0.254054054,10.6702703 C0.725868726,10.815444 1.1976834,10.8880309 1.74208494,10.8880309 C2.9034749,10.8880309 3.95598456,10.6339768 4.79073359,10.0895753 C5.66177606,9.54517375 6.31505792,8.74671815 6.82316602,7.69420849 C7.29498069,6.64169884 7.54903475,5.40772201 7.54903475,4.02857143 C7.54903475,2.83088803 7.25868726,1.88725869 6.67799228,1.23397683 C6.06100386,0.544401544 5.26254826,0.217760618 4.17374517,0.217760618 Z M4.57297297,4.64555985 C4.31891892,4.97220077 4.02857143,5.15366795 3.7019305,5.15366795 C3.26640927,5.15366795 3.04864865,4.82702703 3.04864865,4.13745174 C3.04864865,3.66563707 3.15752896,3.23011583 3.37528958,2.9034749 C3.59305019,2.57683398 3.88339768,2.3953668 4.24633205,2.3953668 C4.46409266,2.3953668 4.60926641,2.5042471 4.75444015,2.68571429 C4.8996139,2.86718147 4.93590734,3.12123552 4.93590734,3.44787645 C4.93590734,3.88339768 4.79073359,4.31891892 4.57297297,4.64555985 Z M14.4447876,6.16988417 C14.0818533,5.77065637 13.6100386,5.48030888 13.0293436,5.37142857 L13.0293436,5.2988417 C13.7915058,5.15366795 14.4084942,4.82702703 14.807722,4.39150579 C15.2432432,3.91969112 15.4247104,3.33899614 15.4247104,2.64942085 C15.4247104,1.88725869 15.1343629,1.30656371 14.553668,0.871042471 C13.972973,0.435521236 13.2108108,0.217760618 12.2671815,0.217760618 C11.6138996,0.217760618 10.9969112,0.29034749 10.4525097,0.471814672 C9.90810811,0.616988417 9.32741313,0.907335907 8.71042471,1.27027027 L9.83552124,3.01235521 C10.56139,2.61312741 11.2146718,2.43166023 11.7590734,2.43166023 C12.0494208,2.43166023 12.3034749,2.5042471 12.4486486,2.61312741 C12.6301158,2.75830116 12.7027027,2.9034749 12.7027027,3.12123552 C12.7027027,3.52046332 12.5212355,3.81081081 12.1220077,4.02857143 C11.7227799,4.24633205 11.1783784,4.35521236 10.4888031,4.35521236 L9.94440154,4.35521236 L9.58146718,6.42393822 L10.1621622,6.42393822 C10.6702703,6.42393822 11.0694981,6.46023166 11.3235521,6.4965251 C11.6138996,6.56911197 11.7953668,6.64169884 11.9405405,6.78687259 C12.0857143,6.93204633 12.1220077,7.11351351 12.1220077,7.36756757 C12.1220077,7.76679537 11.976834,8.09343629 11.6501931,8.31119691 C11.3235521,8.52895753 10.8517375,8.63783784 10.1984556,8.63783784 C9.21853282,8.63783784 8.31119691,8.38378378 7.51274131,7.91196911 L7.51274131,10.2710425 C7.83938224,10.4525097 8.2023166,10.5976834 8.71042471,10.6702703 C9.18223938,10.7791506 9.69034749,10.815444 10.234749,10.815444 C11.6864865,10.815444 12.811583,10.5250965 13.646332,9.98069498 C14.4810811,9.43629344 14.9166023,8.63783784 14.9166023,7.62162162 C14.9528958,7.07722008 14.7714286,6.56911197 14.4447876,6.16988417 Z M15.7513514,9.03706564 L15.4610039,9.83552124 C15.0254826,11.1057915 14.6625483,12.0131274 14.4084942,12.5938224 L16.4409266,12.5938224 C17.0942085,11.5776062 17.7111969,10.4525097 18.2555985,9.18223938 L18.1830116,9.0007722 L15.7513514,9.0007722 L15.7513514,9.03706564 Z M23.4092664,2.64942085 C23.8447876,2.5042471 24.3891892,2.3953668 25.0787645,2.3953668 C25.4779923,2.3953668 25.9135135,2.46795367 26.3853282,2.57683398 L26.8208494,0.435521236 C26.203861,0.29034749 25.6594595,0.217760618 25.1513514,0.217760618 C23.4818533,0.217760618 22.1389961,0.653281853 21.1227799,1.52432432 C20.1065637,2.3953668 19.4169884,3.73822394 19.0177606,5.58918919 C18.9088803,6.27876448 18.8362934,6.8957529 18.8362934,7.403861 C18.8362934,8.56525097 19.1266409,9.43629344 19.6710425,10.0169884 C20.2517375,10.5976834 21.0501931,10.8880309 22.1027027,10.8880309 C22.9011583,10.8880309 23.5907336,10.7065637 24.207722,10.3799228 C24.8247104,10.0169884 25.2965251,9.54517375 25.5868726,8.89189189 C25.9135135,8.23861004 26.0586873,7.51274131 26.0586873,6.67799228 C26.0586873,5.73436293 25.8772201,5.04478764 25.4779923,4.57297297 C25.0787645,4.1011583 24.4980695,3.84710425 23.7359073,3.84710425 C22.792278,3.84710425 22.0664093,4.24633205 21.5583012,5.04478764 L21.4857143,5.04478764 C21.7034749,4.31891892 21.957529,3.81081081 22.2478764,3.44787645 C22.6108108,3.04864865 22.9737452,2.79459459 23.4092664,2.64942085 Z M21.8849421,6.46023166 C22.1027027,6.0972973 22.3567568,5.95212355 22.6833977,5.95212355 C23.1189189,5.95212355 23.3366795,6.24247104 23.3366795,6.85945946 C23.3366795,7.36756757 23.2277992,7.76679537 23.046332,8.12972973 C22.8285714,8.49266409 22.5745174,8.67413127 22.2841699,8.67413127 C22.0664093,8.67413127 21.8849421,8.6015444 21.7760618,8.42007722 C21.6671815,8.27490347 21.5945946,8.02084942 21.5945946,7.73050193 C21.5583012,7.22239382 21.6671815,6.82316602 21.8849421,6.46023166 Z"></path>
                            </g>
                            <g transform="translate(98.718147, 0.000000)" id="Shape">
                                <polygon fill="#434342" points="9.32741313 5.66177606 0.0362934363 25.8409266 10.3799228 25.4054054 4.39150579 34.8779923 14.0092664 35.0957529 6.85945946 61.3359073 27.9822394 22.792278 18.6548263 24.1714286 24.0262548 12.4849421 14.5173745 14.6262548 19.0540541 2.75830116"></polygon>
                                <polygon fill="url(#linearGradient-1)" points="4.75444015 3.88339768 0.0362934363 25.8409266 7.403861 24.0988417 4.39150579 34.8779923 11.7953668 33.8254826 6.85945946 61.3359073 24.7521236 20.0702703 15.5698842 22.211583 19.96139 9.7992278 10.6339768 12.7027027 14.1907336 0.181467181"></polygon>
                            </g>
                            <g transform="translate(122.308880, 25.768340)" id="Shape" fill="#000000">
                                <polygon points="8.96447876 33.2084942 0.108880309 33.2084942 7.11351351 0.0725868726 26.6393822 0.0725868726 25.1150579 7.25868726 14.4447876 7.25868726 13.1382239 13.5737452 23.0100386 13.5737452 21.4494208 20.796139 11.5050193 20.796139"></polygon>
                                <path d="M36.3297297,33.2084942 L36.3297297,9.43629344 L36.1482625,9.43629344 C35.1320463,15.7513514 34.4787645,19.5984556 34.188417,21.0501931 L31.611583,33.2084942 L23.7359073,33.2084942 L30.7405405,0.0725868726 L42.4996139,0.0725868726 L42.4996139,23.5907336 L42.6810811,23.5907336 L53.5328185,0.0725868726 L65.4733591,0.0725868726 L58.396139,33.2084942 L50.4478764,33.2084942 L53.0972973,20.7598456 C53.8594595,17.3119691 54.6579151,14.0092664 55.5289575,10.8880309 L55.8555985,9.43629344 L55.6741313,9.43629344 L44.7498069,33.2084942 L36.3297297,33.2084942 Z"></path>
                            </g>
                            <g transform="translate(3.629344, 25.768340)" id="Shape" fill="#000000">
                                <path d="M38.8702703,27.0023166 L28.7081081,27.0023166 L25.8772201,33.2084942 L16.6586873,33.2084942 L33.5351351,0.0725868726 L44.9312741,0.0725868726 L47.7258687,33.2084942 L39.0880309,33.2084942 L38.8702703,27.0023166 Z M31.9382239,19.9250965 L38.5799228,19.9250965 L38.180695,10.3073359 L38.1444015,8.34749035 C38.1444015,7.22239382 38.180695,6.24247104 38.2169884,5.37142857 C37.8540541,6.67799228 37.3822394,7.91196911 36.8378378,9.14594595 L31.9382239,19.9250965 Z"></path>
                                <path d="M62.4247104,33.2084942 L62.4247104,9.43629344 L62.2432432,9.43629344 C61.227027,15.7513514 60.5737452,19.5984556 60.2833977,21.0501931 L57.7065637,33.2084942 L49.830888,33.2084942 L56.8355212,0.0725868726 L68.5945946,0.0725868726 L68.5945946,23.5907336 L68.7760618,23.5907336 L79.6277992,0.0725868726 L91.5683398,0.0725868726 L84.4911197,33.2084942 L76.5428571,33.2084942 L79.192278,20.7598456 C79.9544402,17.3119691 80.7528958,14.0092664 81.6239382,10.8880309 L81.9505792,9.43629344 L81.769112,9.43629344 L70.8447876,33.2084942 L62.4247104,33.2084942 Z"></path>
                                <path d="M13.8640927,0.0725868726 L9.50888031,20.3969112 C9.07335907,22.4656371 8.42007722,23.9173745 7.62162162,24.8247104 C6.78687259,25.7320463 5.55289575,26.1675676 3.95598456,26.1675676 C3.23011583,26.1675676 2.3953668,26.0949807 1.48803089,25.9135135 L0,32.8455598 C1.63320463,33.2810811 3.23011583,33.4988417 4.82702703,33.4988417 C7.54903475,33.4988417 9.76293436,33.0996139 11.4687259,32.3374517 C13.1745174,31.5389961 14.553668,30.3050193 15.6061776,28.5992278 C16.6586873,26.8934363 17.5297297,24.5343629 18.1830116,21.5220077 L22.792278,0.0725868726 L13.8640927,0.0725868726 L13.8640927,0.0725868726 Z"></path>
                            </g>
                        </g>
                    </g>
                </g>
            </g>
        </g>
    </g>
</svg>