<?xml version="1.0" encoding="UTF-8"?>
<svg width="62px" height="62px" viewBox="0 0 62 62" version="1.1" xmlns="http://www.w3.org/2000/svg" xmlns:xlink="http://www.w3.org/1999/xlink">
    <!-- Generator: Sketch 41.2 (35397) - http://www.bohemiancoding.com/sketch -->
    <title>ic_company</title>
    <desc>Created with Sketch.</desc>
    <defs></defs>
    <g id="assets" stroke="none" stroke-width="1" fill="none" fill-rule="evenodd">
        <g id="_overview_assets_measurements" transform="translate(-112.000000, -214.000000)">
            <g id="--footer" transform="translate(30.000000, 214.000000)">
                <g id="ic---company" transform="translate(92.000000, 10.000000)">
                    <g id="icon">
                        <path d="M39.7475806,12.6649188 L8.5016129,12.6649188 L8.5016129,11.9924334 L28.0200914,4.185042 C29.0862268,3.75858785 29.6110935,2.54483372 29.1846393,1.47869834 C28.7581852,0.41256296 27.544431,-0.104102648 26.4782957,0.314150463 L5.6476505,8.64640853 C4.86035052,8.96624914 4.33548387,9.72894599 4.33548387,10.5818543 L4.33548387,12.6649188 L2.25241935,12.6649188 C1.10427356,12.6649188 0.169354839,13.5998375 0.169354839,14.7479833 L0.169354839,39.7447575 C0.169354839,40.8929033 1.10427356,41.827822 2.25241935,41.827822 L39.7475806,41.827822 C40.8957264,41.827822 41.8306452,40.8929033 41.8306452,39.7447575 L41.8306452,14.7479833 C41.8306452,13.5998375 40.8957264,12.6649188 39.7475806,12.6649188 L39.7475806,12.6649188 Z" id="Shape" fill="#239CD7"></path>
                        <path d="M27.528739,38.5523656 C21.4417736,38.5523656 16.50493,33.615522 16.50493,27.5285565 C16.50493,21.4415911 21.4417736,16.5047475 27.528739,16.5047475 C33.6157044,16.5047475 38.5525481,21.4415911 38.5525481,27.5285565 C38.5525481,33.615522 33.6157044,38.5523656 27.528739,38.5523656 L27.528739,38.5523656 Z" id="Path" fill="#1F2A40"></path>
                    </g>
                </g>
            </g>
            <g id="_measurments"></g>
        </g>
    </g>
</svg>