<?xml version="1.0" encoding="UTF-8"?>
<svg width="62px" height="62px" viewBox="0 0 62 62" version="1.1" xmlns="http://www.w3.org/2000/svg" xmlns:xlink="http://www.w3.org/1999/xlink">
    <!-- Generator: Sketch 41.2 (35397) - http://www.bohemiancoding.com/sketch -->
    <title>ic_contact</title>
    <desc>Created with Sketch.</desc>
    <defs>
        <path d="M42,40.8653594 L40.1418618,40.9707291 C39.7659209,40.9918031 39.3997829,41.0013821 39.0429577,41.0013821 L39.0419774,41.0013821 C35.030634,41.0013821 32.1873053,39.7704718 31.2388755,39.29535 C29.3748556,40.0861021 24.4459616,42 20.416973,42 C9.15835171,42 7.10542736e-15,34.1494745 7.10542736e-15,24.499521 C7.10542736e-15,14.8495676 9.15835171,7 20.416973,7 C31.6755943,7 40.8344362,14.8505255 40.8344362,24.500479 C40.8344362,28.0078548 39.630641,31.3806448 37.3495081,34.2768761 C37.5676224,37.2253134 40.5383888,39.676118 40.5687778,39.7010236 L42,40.8653594 L42,40.8653594 Z" id="path-1"></path>
        <mask id="mask-2" maskContentUnits="userSpaceOnUse" maskUnits="objectBoundingBox" x="-2" y="-2" width="46" height="39">
            <rect x="-2" y="5" width="46" height="39" fill="white"></rect>
            <use xlink:href="#path-1" fill="black"></use>
        </mask>
    </defs>
    <g id="assets" stroke="none" stroke-width="1" fill="none" fill-rule="evenodd">
        <g id="Assets" transform="translate(-30.000000, -110.000000)">
            <g id="--footer" transform="translate(30.000000, 110.000000)">
                <g id="ic---contact" transform="translate(3.000000, 10.000000)">
                    <g id="icon">
                        <path d="M57,33.8653594 L55.1418618,33.9707291 C54.7659209,33.9918031 54.3997829,34.0013821 54.0429577,34.0013821 L54.0419774,34.0013821 C50.030634,34.0013821 47.1873053,32.7704718 46.2388755,32.29535 C44.3748556,33.0861021 39.4459616,35 35.416973,35 C24.1583517,35 15,27.1494745 15,17.499521 C15,7.84956757 24.1583517,0 35.416973,0 C46.6755943,0 55.8344362,7.85052548 55.8344362,17.500479 C55.8344362,21.0078548 54.630641,24.3806448 52.3495081,27.2768761 C52.5676224,30.2253134 55.5383888,32.676118 55.5687778,32.7010236 L57,33.8653594 L57,33.8653594 Z" id="ic---speech-bubble" fill="#515172"></path>
                        <g id="ic---speech-bubble" transform="translate(21.000000, 24.500000) scale(-1, 1) translate(-21.000000, -24.500000) ">
                            <use fill="#A2A2B3" fill-rule="evenodd" xlink:href="#path-1"></use>
                            <use stroke="#FFFFFF" mask="url(#mask-2)" stroke-width="4" xlink:href="#path-1"></use>
                        </g>
                    </g>
                </g>
            </g>
        </g>
    </g>
</svg>