<?xml version="1.0" encoding="UTF-8"?>
<svg width="62px" height="62px" viewBox="0 0 62 62" version="1.1" xmlns="http://www.w3.org/2000/svg" xmlns:xlink="http://www.w3.org/1999/xlink">
    <!-- Generator: Sketch 41.2 (35397) - http://www.bohemiancoding.com/sketch -->
    <title>ic_career</title>
    <desc>Created with Sketch.</desc>
    <defs>
        <path d="M18,16 C21.8659932,16 25,12.8659932 25,9 C25,5.13400675 21.8659932,2 18,2 C14.1340068,2 11,5.13400675 11,9 C11,12.8659932 14.1340068,16 18,16 Z M19.5086163,58 C21.4538359,58 23.1644589,56.4247354 23.3090808,54.4994728 L24.5466467,38.0561421 C24.6918206,36.1308795 24.9280731,32.980898 25.072695,31.0561832 L25.138934,30.1792712 C25.2835559,28.2545564 26.5277457,27.7955607 27.9033096,29.1615933 L30.2084279,31.4483561 C31.5834398,32.8132933 33.7709839,32.876282 35.0687169,31.5896699 C36.3658979,30.3019622 36.2996589,28.1340563 34.9218871,26.7702146 L28.560732,20.4779197 C27.1829602,19.1151734 24.4638479,18 22.5186283,18 L13.4814164,18 C11.5361968,18 8.81653257,19.1151734 7.4393127,20.4779197 L1.07760567,26.7702146 C-0.30016619,28.1340563 -0.365301238,30.3019622 0.931327812,31.5896699 C2.22906085,32.8768298 4.41550089,32.8132933 5.79161678,31.4483561 L8.09673509,29.1615933 C9.47229899,27.7961084 10.7164888,28.2545564 10.8605587,30.1792712 L10.9267977,31.0561832 C11.0714196,32.9814457 11.3082242,36.1314272 11.453398,38.0561421 L12.6909639,54.4994728 C12.8355858,56.4247354 14.5462088,58 16.4914284,58 L19.5086163,58 Z" id="path-1"></path>
        <mask id="mask-2" maskContentUnits="userSpaceOnUse" maskUnits="objectBoundingBox" x="-2" y="-2" width="40" height="60">
            <rect x="-2" y="0" width="40" height="60" fill="white"></rect>
            <use xlink:href="#path-1" fill="black"></use>
        </mask>
    </defs>
    <g id="assets" stroke="none" stroke-width="1" fill="none" fill-rule="evenodd">
        <g id="_overview_assets_measurements" transform="translate(-276.000000, -214.000000)">
            <g id="--footer" transform="translate(30.000000, 214.000000)">
                <g id="ic-job" transform="translate(251.000000, 2.000000)">
                    <path d="M35,14 C38.8659932,14 42,10.8659932 42,7 C42,3.13400675 38.8659932,0 35,0 C31.1340068,0 28,3.13400675 28,7 C28,10.8659932 31.1340068,14 35,14 Z M36.5086163,56 C38.4538359,56 40.1644589,54.4247354 40.3090808,52.4994728 L41.5466467,36.0561421 C41.6918206,34.1308795 41.9280731,30.980898 42.072695,29.0561832 L42.138934,28.1792712 C42.2835559,26.2545564 43.5277457,25.7955607 44.9033096,27.1615933 L47.2084279,29.4483561 C48.5834398,30.8132933 50.7709839,30.876282 52.0687169,29.5896699 C53.3658979,28.3019622 53.2996589,26.1340563 51.9218871,24.7702146 L45.560732,18.4779197 C44.1829602,17.1151734 41.4638479,16 39.5186283,16 L30.4814164,16 C28.5361968,16 25.8165326,17.1151734 24.4393127,18.4779197 L18.0776057,24.7702146 C16.6998338,26.1340563 16.6346988,28.3019622 17.9313278,29.5896699 C19.2290608,30.8768298 21.4155009,30.8132933 22.7916168,29.4483561 L25.0967351,27.1615933 C26.472299,25.7961084 27.7164888,26.2545564 27.8605587,28.1792712 L27.9267977,29.0561832 C28.0714196,30.9814457 28.3082242,34.1314272 28.453398,36.0561421 L29.6909639,52.4994728 C29.8355858,54.4247354 31.5462088,56 33.4914284,56 L36.5086163,56 Z" id="ic---person" fill="#239CD7"></path>
                    <g id="ic---person">
                        <use fill="#1F2A40" fill-rule="evenodd" xlink:href="#path-1"></use>
                        <use stroke="#FFFFFF" mask="url(#mask-2)" stroke-width="4" xlink:href="#path-1"></use>
                    </g>
                </g>
            </g>
            <g id="_measurments"></g>
        </g>
    </g>
</svg>