<?xml version="1.0" encoding="UTF-8"?>
<svg width="62px" height="62px" viewBox="0 0 62 62" version="1.1" xmlns="http://www.w3.org/2000/svg" xmlns:xlink="http://www.w3.org/1999/xlink">
    <!-- Generator: Sketch 41.2 (35397) - http://www.bohemiancoding.com/sketch -->
    <title>ic_marketing</title>
    <desc>Created with Sketch.</desc>
    <defs></defs>
    <g id="assets" stroke="none" stroke-width="1" fill="none" fill-rule="evenodd">
        <g id="_overview_assets_measurements" transform="translate(-194.000000, -214.000000)">
            <g id="--footer" transform="translate(30.000000, 214.000000)" fill="#1F2A40">
                <g id="ic_marketing" transform="translate(171.000000, 12.000000)">
                    <path d="M47.9697469,27.9506588 L40.5493228,0.579426954 C40.4131682,0.0505142608 39.8004726,-0.147827999 39.3239316,0.116628347 L0.38372439,22.727646 C0.111415248,22.9259882 -0.092816608,23.2565587 0.0433379627,23.5871291 L2.2218111,32.1819604 C2.28988838,32.5786449 2.69835209,32.7769872 3.10681581,32.7769872 L11.1399355,32.0497322 C11.4803219,32.0497322 11.8207083,32.1819604 11.9568629,32.5125308 C12.4334039,33.7686985 13.2503313,34.8926379 14.3395679,35.8182351 C15.9734227,37.206631 18.0838186,38 20.2622917,38 L20.80691,38 C23.189615,37.8677718 25.3680881,36.8099464 26.9338657,35.0909802 C28.0231023,33.9009266 28.7038751,32.5125308 28.9761843,31.0580209 C29.0442615,30.7274505 29.384648,30.4629941 29.7250344,30.4629941 L47.288974,28.9423701 C47.765515,28.876256 48.1059015,28.4134574 47.9697469,27.9506588 L47.9697469,27.9506588 Z M24.8234698,33.3720139 C23.7342333,34.5620675 22.236533,35.2893224 20.6026782,35.3554365 C18.424205,35.4876647 16.4499637,34.4959534 15.2245726,32.8431012 C14.8841862,32.3803026 15.2245726,31.6530477 15.8372682,31.5869336 L25.0277017,30.7935646 C25.6403973,30.7274505 26.1169383,31.3885913 25.8446291,31.917504 C25.57232,32.4464167 25.2319336,32.9753294 24.8234698,33.3720139 L24.8234698,33.3720139 Z" id="Shape"></path>
                </g>
            </g>
            <g id="_measurments"></g>
        </g>
    </g>
</svg>