<?xml version="1.0" encoding="UTF-8"?>
<svg width="62px" height="62px" viewBox="0 0 62 62" version="1.1" xmlns="http://www.w3.org/2000/svg" xmlns:xlink="http://www.w3.org/1999/xlink">
    <!-- Generator: Sketch 41.2 (35397) - http://www.bohemiancoding.com/sketch -->
    <title>ic_press</title>
    <desc>Created with Sketch.</desc>
    <defs></defs>
    <g id="assets" stroke="none" stroke-width="1" fill="none" fill-rule="evenodd">
        <g id="Assets" transform="translate(-358.000000, -110.000000)">
            <g id="--footer" transform="translate(30.000000, 110.000000)">
                <g id="ic---press" transform="translate(333.000000, 12.000000)">
                    <rect id="page---two" fill="#515172" x="0" y="3.71428571" width="52" height="35.2857143"></rect>
                    <path d="M41.7857143,0 L0,0 L0,32.9917196 C0,36.3193721 2.68556748,39 5.99838286,39 L46.4285714,39 L46.4285714,38.8441548 C43.7680735,38.226099 41.7857143,35.8419498 41.7857143,32.9932494 L41.7857143,-1.99840144e-15 Z" id="page---one" fill="#A2A2B3"></path>
                    <path d="M3.71428571,6.64655754 C3.71428571,5.53994437 4.61020826,4.64285714 5.71798611,4.64285714 L16.5677282,4.64285714 C17.6743413,4.64285714 18.5714286,5.53877969 18.5714286,6.64655754 L18.5714286,17.4962996 C18.5714286,18.6029128 17.675506,19.5 16.5677282,19.5 L5.71798611,19.5 C4.61137294,19.5 3.71428571,18.6040775 3.71428571,17.4962996 L3.71428571,6.64655754 Z M3.71428571,24.2096461 C3.71428571,23.6599237 4.16125272,23.2142857 4.7054756,23.2142857 L37.0802387,23.2142857 C37.6276577,23.2142857 38.0714286,23.6697301 38.0714286,24.2096461 L38.0714286,25.933211 C38.0714286,26.4829334 37.6244616,26.9285714 37.0802387,26.9285714 L4.7054756,26.9285714 C4.15805654,26.9285714 3.71428571,26.4731271 3.71428571,25.933211 L3.71428571,24.2096461 Z M23.2142857,16.7810747 C23.2142857,16.2313523 23.6589305,15.7857143 24.2121746,15.7857143 L37.0735397,15.7857143 C37.6246585,15.7857143 38.0714286,16.2411586 38.0714286,16.7810747 L38.0714286,18.5046396 C38.0714286,19.054362 37.6267838,19.5 37.0735397,19.5 L24.2121746,19.5 C23.6610558,19.5 23.2142857,19.0445557 23.2142857,18.5046396 L23.2142857,16.7810747 Z M3.71428571,31.6382176 C3.71428571,31.0884952 4.16125272,30.6428571 4.7054756,30.6428571 L37.0802387,30.6428571 C37.6276577,30.6428571 38.0714286,31.0983015 38.0714286,31.6382176 L38.0714286,33.3617824 C38.0714286,33.9115048 37.6244616,34.3571429 37.0802387,34.3571429 L5.56147494,34.3571429 C4.5413005,34.3571429 3.71428571,33.5328225 3.71428571,32.5 L3.71428571,31.6382176 Z" id="Combined-Shape" fill="#515172"></path>
                </g>
            </g>
        </g>
    </g>
</svg>