<?xml version="1.0" encoding="UTF-8"?>
<svg width="50px" height="50px" viewBox="0 0 50 50" version="1.1" xmlns="http://www.w3.org/2000/svg" xmlns:xlink="http://www.w3.org/1999/xlink">
    <!-- Generator: Sketch 43 (38999) - http://www.bohemiancoding.com/sketch -->
    <title>ic_sharing_twitter</title>
    <desc>Created with Sketch.</desc>
    <defs></defs>
    <g id="assets" stroke="none" stroke-width="1" fill="none" fill-rule="evenodd">
        <g id="--50px" transform="translate(-140.000000, 0.000000)">
            <g id="colour">
                <g id="ic---twitter" transform="translate(140.000000, 0.000000)">
                    <rect id="Rectangle-11" fill="#00ABF1" x="0" y="0" width="50" height="50"></rect>
                    <path d="M40.0322581,16.7490495 C38.9644153,17.2152626 37.8158266,17.5305369 36.6109879,17.6725444 C37.8412298,16.9464309 38.7856855,15.7978677 39.2302419,14.4287017 C38.0798387,15.1003343 36.8042339,15.5879825 35.4478831,15.8514554 C34.3609879,14.7118234 32.8132056,14 31.1003024,14 C27.8105847,14 25.1441532,16.6249046 25.1441532,19.8633886 C25.1441532,20.3224566 25.1967742,20.769914 25.2983871,21.1995088 C20.3474798,20.9547916 15.9590726,18.6201537 13.021371,15.0726473 C12.5087702,15.938982 12.2148185,16.9464309 12.2148185,18.0208645 C12.2148185,20.0545181 13.2663306,21.8497063 14.8640121,22.9009186 C13.8878024,22.8705522 12.9696573,22.6070793 12.1667339,22.1676601 C12.1658266,22.1926677 12.1658266,22.2167821 12.1658266,22.2417897 C12.1658266,25.0828315 14.2189516,27.4523014 16.9443548,27.9908578 C16.4444556,28.1248271 15.918246,28.1962774 15.3747984,28.1962774 C14.9910282,28.1962774 14.6181452,28.1596591 14.2543347,28.0917814 C15.0118952,30.4210605 17.211996,32.1162183 19.8185484,32.1635542 C17.7799395,33.7363534 15.2114919,34.6732452 12.4207661,34.6732452 C11.9399194,34.6732452 11.4663306,34.6455582 11,34.5919705 C13.6355847,36.2549758 16.7665323,37.2258065 20.1306452,37.2258065 C31.0866935,37.2258065 37.0773185,28.290949 37.0773185,20.5430593 C37.0773185,20.2885177 37.071875,20.0357624 37.0600806,19.7847932 C38.2240927,18.9577563 39.233871,17.9252997 40.0322581,16.7490495" id="Page-1" fill="#FFFFFF"></path>
                </g>
            </g>
        </g>
    </g>
</svg>