<?xml version="1.0" encoding="UTF-8"?>
<svg width="68px" height="68px" viewBox="0 0 68 68" version="1.1" xmlns="http://www.w3.org/2000/svg" xmlns:xlink="http://www.w3.org/1999/xlink">
    <!-- Generator: Sketch 43 (38999) - http://www.bohemiancoding.com/sketch -->
    <title>ic_sharing_twitter_68</title>
    <desc>Created with Sketch.</desc>
    <defs></defs>
    <g id="assets" stroke="none" stroke-width="1" fill="none" fill-rule="evenodd">
        <g id="--68px" transform="translate(-156.000000, -78.000000)">
            <g id="colour" transform="translate(0.000000, 78.000000)">
                <g id="ic---twitter-copy" transform="translate(156.000000, 0.000000)">
                    <rect id="Rectangle-11" fill="#C9C9C9" x="0" y="0" width="68" height="68"></rect>
                    <path d="M54,22.5508556 C52.6390938,23.1530475 51.1752812,23.5602769 49.6397812,23.7437031 C51.2076562,22.8058066 52.4113125,21.3222457 52.977875,19.5537397 C51.51175,20.4212651 49.8860625,21.051144 48.1574687,21.3914632 C46.7722812,19.9194386 44.7997187,19 42.6167188,19 C38.4241562,19 35.0259375,22.3905018 35.0259375,26.5735435 C35.0259375,27.1665064 35.093,27.7444722 35.2225,28.2993655 C28.9128438,27.9832724 23.3200625,24.9676985 19.576125,20.3855028 C18.9228437,21.5045184 18.5482187,22.8058066 18.5482187,24.1936166 C18.5482187,26.8204192 19.8883125,29.139204 21.9244688,30.4970198 C20.6803437,30.4577966 19.5102187,30.1174774 18.4869375,29.5498943 C18.4857812,29.5821957 18.4857812,29.6133436 18.4857812,29.6456451 C18.4857812,33.315324 21.102375,36.3758893 24.57575,37.0715247 C23.9386563,37.2445684 23.2680312,37.3368583 22.5754375,37.3368583 C22.0863438,37.3368583 21.611125,37.2895597 21.1474688,37.2018843 C22.1129375,40.2105364 24.9168437,42.4001154 28.23875,42.4612575 C25.6406562,44.4927898 22.3673125,45.7029417 18.8106875,45.7029417 C18.197875,45.7029417 17.5943125,45.6671794 17,45.5979619 C20.3589063,47.7460104 24.349125,49 28.6365,49 C42.599375,49 50.2340937,37.4591425 50.2340937,27.4514516 C50.2340937,27.1226687 50.2271563,26.796193 50.212125,26.4720246 C51.6955938,25.4037685 52.9825,24.0701788 54,22.5508556" id="Page-1" fill="#FFFFFF"></path>
                </g>
            </g>
        </g>
    </g>
</svg>