<?xml version="1.0" encoding="UTF-8"?>
<svg width="50px" height="50px" viewBox="0 0 50 50" version="1.1" xmlns="http://www.w3.org/2000/svg" xmlns:xlink="http://www.w3.org/1999/xlink">
    <!-- Generator: Sketch 43 (38999) - http://www.bohemiancoding.com/sketch -->
    <title>ic_sharing_snapchat</title>
    <desc>Created with Sketch.</desc>
    <defs>
        <rect id="path-1" x="0" y="0" width="50" height="50"></rect>
    </defs>
    <g id="assets" stroke="none" stroke-width="1" fill="none" fill-rule="evenodd">
        <g id="--50px" transform="translate(-702.000000, 0.000000)">
            <g id="colour">
                <g id="ic_sharing_snapchat" transform="translate(702.000000, 0.000000)">
                    <mask id="mask-2" fill="white">
                        <use xlink:href="#path-1"></use>
                    </mask>
                    <use id="Rectangle-2" fill="#FFFC00" xlink:href="#path-1"></use>
                    <path d="M25.2158157,39 C25.1398818,39 25.0639479,39 24.9880139,38.9905724 L24.9880139,38.9905724 C24.9405552,38.9905724 24.8930965,39 24.836146,39 C23.0611901,39 21.9126892,38.1986532 20.8116471,37.4255892 C20.0523077,36.8882155 19.3309352,36.3885522 18.4766783,36.247138 C18.0590417,36.1811448 17.6508967,36.1434343 17.2522435,36.1434343 C16.5308711,36.1434343 15.9708582,36.2565657 15.5532216,36.3319865 C15.3064362,36.3791246 15.0881262,36.4262626 14.9172748,36.4262626 C14.7464234,36.4262626 14.5565886,36.3885522 14.4806546,36.1151515 C14.4142124,35.8794613 14.357262,35.643771 14.3098032,35.426936 C14.1864106,34.8518519 14.0914932,34.5030303 13.8541996,34.4653199 C11.035152,34.0316498 10.2283538,33.4377104 10.0480107,33.0228956 C10.0195355,32.96633 10.0100437,32.9003367 10.000552,32.843771 C9.99106026,32.6835017 10.1049612,32.5420875 10.2663208,32.5138047 C14.6040473,31.806734 16.5498545,27.4040404 16.6352802,27.2154882 C16.6352802,27.2060606 16.6352802,27.2060606 16.644772,27.196633 C16.9105408,26.6592593 16.9579995,26.1973064 16.7966399,25.820202 C16.5023958,25.1225589 15.5247463,24.8208754 14.8887996,24.613468 C14.7274399,24.56633 14.5850638,24.5191919 14.4616711,24.4720539 C13.1802858,23.9723906 13.0758767,23.4538721 13.1233354,23.189899 C13.2087611,22.7373737 13.8162326,22.4262626 14.3003115,22.4262626 C14.4331959,22.4262626 14.5565886,22.4545455 14.651506,22.4922559 C15.2305023,22.756229 15.7525482,22.8976431 16.1986601,22.8976431 C16.8156233,22.8976431 17.0908839,22.6430976 17.1193591,22.6053872 C17.1003756,22.3131313 17.0813921,22.0114478 17.0624087,21.6909091 C16.9295243,19.6545455 16.7776564,17.1185185 17.4230949,15.6760943 C19.3689022,11.3488215 23.4883186,11.0094276 24.7127534,11.0094276 C24.7412286,11.0094276 25.244291,11 25.244291,11 L25.3202249,11 C26.5446597,11 30.6735679,11.3393939 32.6193752,15.6666667 C33.2648137,17.1090909 33.103454,19.6451178 32.9800614,21.6814815 L32.9705696,21.76633 C32.9515862,22.0491582 32.9326027,22.3225589 32.9231109,22.586532 C32.9515862,22.6148148 33.1983715,22.8599327 33.767876,22.8787879 L33.767876,22.8787879 C34.1950045,22.8599327 34.6885751,22.7279461 35.2201127,22.4734007 C35.3814723,22.3979798 35.5523237,22.3885522 35.6757163,22.3885522 C35.8560595,22.3885522 36.0458943,22.4262626 36.1977622,22.4828283 L36.2072539,22.4828283 C36.6438741,22.63367 36.9286264,22.9353535 36.9381181,23.2558923 C36.9476099,23.5575758 36.7103163,24.0006734 35.5902907,24.443771 C35.4763897,24.4909091 35.3245219,24.5380471 35.1631622,24.5851852 C34.5177237,24.7925926 33.5495659,25.0942761 33.2553219,25.7919192 C33.0939623,26.1690236 33.141421,26.640404 33.4071898,27.1683502 C33.4071898,27.1777778 33.4166815,27.1777778 33.4166815,27.1872054 C33.5021072,27.3757576 35.4384228,31.7784512 39.785641,32.4855219 C39.9470006,32.5138047 40.0609015,32.6552189 40.0514098,32.8154882 C40.0514098,32.8720539 40.0324263,32.9380471 40.0039511,32.9946128 C39.823608,33.4094276 39.0168098,34.003367 36.1977622,34.437037 C35.9699604,34.4747475 35.8750429,34.7670034 35.7421585,35.3986532 C35.6946998,35.6249158 35.6377494,35.8511785 35.5713072,36.0868687 C35.5143567,36.2942761 35.3814723,36.3885522 35.1631622,36.3885522 L35.1251953,36.3885522 C34.9733274,36.3885522 34.764509,36.3602694 34.4892485,36.3131313 C34.0146613,36.2188552 33.473632,36.1340067 32.7902265,36.1340067 C32.3915733,36.1340067 31.9834284,36.1717172 31.5657917,36.2377104 C30.7210266,36.3791246 29.9996541,36.8787879 29.2403147,37.4161616 C28.1392725,38.1986532 26.9907717,39 25.2158157,39 L25.2158157,39 Z" id="Shape" fill="#FFFFFF" mask="url(#mask-2)"></path>
                    <path d="M25.2158157,39 C25.1398818,39 25.0639479,39 24.9880139,38.9905724 L24.9880139,38.9905724 C24.9405552,38.9905724 24.8930965,39 24.836146,39 C23.0611901,39 21.9126892,38.1986532 20.8116471,37.4255892 C20.0523077,36.8882155 19.3309352,36.3885522 18.4766783,36.247138 C18.0590417,36.1811448 17.6508967,36.1434343 17.2522435,36.1434343 C16.5308711,36.1434343 15.9708582,36.2565657 15.5532216,36.3319865 C15.3064362,36.3791246 15.0881262,36.4262626 14.9172748,36.4262626 C14.7464234,36.4262626 14.5565886,36.3885522 14.4806546,36.1151515 C14.4142124,35.8794613 14.357262,35.643771 14.3098032,35.426936 C14.1864106,34.8518519 14.0914932,34.5030303 13.8541996,34.4653199 C11.035152,34.0316498 10.2283538,33.4377104 10.0480107,33.0228956 C10.0195355,32.96633 10.0100437,32.9003367 10.000552,32.843771 C9.99106026,32.6835017 10.1049612,32.5420875 10.2663208,32.5138047 C14.6040473,31.806734 16.5498545,27.4040404 16.6352802,27.2154882 C16.6352802,27.2060606 16.6352802,27.2060606 16.644772,27.196633 C16.9105408,26.6592593 16.9579995,26.1973064 16.7966399,25.820202 C16.5023958,25.1225589 15.5247463,24.8208754 14.8887996,24.613468 C14.7274399,24.56633 14.5850638,24.5191919 14.4616711,24.4720539 C13.1802858,23.9723906 13.0758767,23.4538721 13.1233354,23.189899 C13.2087611,22.7373737 13.8162326,22.4262626 14.3003115,22.4262626 C14.4331959,22.4262626 14.5565886,22.4545455 14.651506,22.4922559 C15.2305023,22.756229 15.7525482,22.8976431 16.1986601,22.8976431 C16.8156233,22.8976431 17.0908839,22.6430976 17.1193591,22.6053872 C17.1003756,22.3131313 17.0813921,22.0114478 17.0624087,21.6909091 C16.9295243,19.6545455 16.7776564,17.1185185 17.4230949,15.6760943 C19.3689022,11.3488215 23.4883186,11.0094276 24.7127534,11.0094276 C24.7412286,11.0094276 25.244291,11 25.244291,11 L25.3202249,11 C26.5446597,11 30.6735679,11.3393939 32.6193752,15.6666667 C33.2648137,17.1090909 33.103454,19.6451178 32.9800614,21.6814815 L32.9705696,21.76633 C32.9515862,22.0491582 32.9326027,22.3225589 32.9231109,22.586532 C32.9515862,22.6148148 33.1983715,22.8599327 33.767876,22.8787879 L33.767876,22.8787879 C34.1950045,22.8599327 34.6885751,22.7279461 35.2201127,22.4734007 C35.3814723,22.3979798 35.5523237,22.3885522 35.6757163,22.3885522 C35.8560595,22.3885522 36.0458943,22.4262626 36.1977622,22.4828283 L36.2072539,22.4828283 C36.6438741,22.63367 36.9286264,22.9353535 36.9381181,23.2558923 C36.9476099,23.5575758 36.7103163,24.0006734 35.5902907,24.443771 C35.4763897,24.4909091 35.3245219,24.5380471 35.1631622,24.5851852 C34.5177237,24.7925926 33.5495659,25.0942761 33.2553219,25.7919192 C33.0939623,26.1690236 33.141421,26.640404 33.4071898,27.1683502 C33.4071898,27.1777778 33.4166815,27.1777778 33.4166815,27.1872054 C33.5021072,27.3757576 35.4384228,31.7784512 39.785641,32.4855219 C39.9470006,32.5138047 40.0609015,32.6552189 40.0514098,32.8154882 C40.0514098,32.8720539 40.0324263,32.9380471 40.0039511,32.9946128 C39.823608,33.4094276 39.0168098,34.003367 36.1977622,34.437037 C35.9699604,34.4747475 35.8750429,34.7670034 35.7421585,35.3986532 C35.6946998,35.6249158 35.6377494,35.8511785 35.5713072,36.0868687 C35.5143567,36.2942761 35.3814723,36.3885522 35.1631622,36.3885522 L35.1251953,36.3885522 C34.9733274,36.3885522 34.764509,36.3602694 34.4892485,36.3131313 C34.0146613,36.2188552 33.473632,36.1340067 32.7902265,36.1340067 C32.3915733,36.1340067 31.9834284,36.1717172 31.5657917,36.2377104 C30.7210266,36.3791246 29.9996541,36.8787879 29.2403147,37.4161616 C28.1392725,38.1986532 26.9907717,39 25.2158157,39 L25.2158157,39 Z" id="Shape" stroke="#737373" mask="url(#mask-2)"></path>
                </g>
            </g>
        </g>
    </g>
</svg>