<?xml version="1.0" encoding="UTF-8"?>
<svg width="50px" height="50px" viewBox="0 0 50 50" version="1.1" xmlns="http://www.w3.org/2000/svg" xmlns:xlink="http://www.w3.org/1999/xlink">
    <!-- Generator: Sketch 43 (38999) - http://www.bohemiancoding.com/sketch -->
    <title>ic_sharing_print</title>
    <desc>Created with Sketch.</desc>
    <defs>
        <rect id="path-1" x="0" y="0" width="50" height="50"></rect>
    </defs>
    <g id="assets" stroke="none" stroke-width="1" fill="none" fill-rule="evenodd">
        <g transform="translate(-852.000000, -110.000000)" id="social">
            <g transform="translate(110.000000, 110.000000)">
                <g id="--50px" transform="translate(322.000000, 0.000000)">
                    <g id="colour">
                        <g id="ic---print" transform="translate(420.000000, 0.000000)">
                            <mask id="mask-2" fill="white">
                                <use xlink:href="#path-1"></use>
                            </mask>
                            <use id="Rectangle-2" fill="#FFFFFF" xlink:href="#path-1"></use>
                            <g id="icon" mask="url(#mask-2)">
                                <g transform="translate(13.000000, 13.000000)" id="ic_print">
                                    <g>
                                        <path d="M19,10 L19,14.0192871 L5,14.0849609 L5,10 C3.34,10 2,11.34 2,13 L2,19 L22,19 L22,13 C22,11.34 20.66,10 19,10 Z M18,5 L6,5 L6,13 L18,13 L18,5 Z" id="Shape" fill="#737373"></path>
                                        <polygon id="Shape" points="0 0 24 0 24 24 0 24"></polygon>
                                    </g>
                                </g>
                            </g>
                        </g>
                    </g>
                </g>
            </g>
        </g>
    </g>
</svg>