<?xml version="1.0" encoding="UTF-8"?>
<svg width="50px" height="50px" viewBox="0 0 50 50" version="1.1" xmlns="http://www.w3.org/2000/svg" xmlns:xlink="http://www.w3.org/1999/xlink">
    <!-- Generator: Sketch 43 (38999) - http://www.bohemiancoding.com/sketch -->
    <title>ic_sharing_whatsapp_grey</title>
    <desc>Created with Sketch.</desc>
    <defs>
        <rect id="path-1" x="0" y="0" width="50" height="50"></rect>
    </defs>
    <g id="assets" stroke="none" stroke-width="1" fill="none" fill-rule="evenodd">
        <g id="--50px" transform="translate(-210.000000, -78.000000)">
            <g id="grey" transform="translate(0.000000, 78.000000)">
                <g id="ic---whatsapp" transform="translate(210.000000, 0.000000)">
                    <mask id="mask-2" fill="white">
                        <use xlink:href="#path-1"></use>
                    </mask>
                    <use id="Rectangle-2" fill="#D8D8D8" xlink:href="#path-1"></use>
                    <g id="ic-whatsapp" mask="url(#mask-2)">
                        <rect id="plane---channel" fill="#C9C9C9" x="0" y="0" width="50" height="50"></rect>
                        <g id="icon" transform="translate(9.000000, 9.000000)">
                            <path d="M0,32 L2.26009979,23.783 C0.865869341,21.378 0.132592521,18.65 0.13359701,15.856 C0.136610476,7.113 7.28455274,0 16.0667983,0 C20.3288442,0.001 24.3297231,1.653 27.3371626,4.65 C30.3456065,7.647 32.001004,11.631 31.9999995,15.868 C31.9959816,24.611 24.8480393,31.725 16.0667983,31.725 L16.0667983,31.725 L16.0597669,31.725 C13.3938536,31.724 10.7731423,31.058 8.44574179,29.795 L0,32 Z" id="ic---contactWhatsapp" fill="#FFFFFF"></path>
                            <path d="M9.0138755,27.246 L9.49703461,27.532 C11.5311244,28.733 13.8615384,29.368 16.2371544,29.369 L16.2431814,29.369 C23.5417969,29.369 29.4833482,23.456 29.4863616,16.189 C29.4873661,12.668 28.1112165,9.356 25.6110439,6.865 C23.1108712,4.374 19.7850088,3.001 16.2482038,3 C8.94356128,3 3.00301455,8.912 3.00000108,16.179 C2.99899659,18.669 3.69912528,21.094 5.02505049,23.193 L5.33945548,23.691 L4.00147641,28.555 L9.0138755,27.246 Z" id="Fill-54" fill="#C9C9C9"></path>
                            <path d="M12.1133816,9.694 C11.7899362,8.921 11.4624729,9.026 11.2173776,9.014 C10.9853407,9.002 10.7201557,9 10.4549706,9 C10.1887811,9 9.75785539,9.099 9.39322596,9.496 C9.02859653,9.892 8,10.851 8,12.801 C8,14.751 9.42637409,16.635 9.62526287,16.9 C9.82415165,17.164 12.4328091,21.166 16.425652,22.882 C17.3758984,23.29 18.1172111,23.534 18.6957967,23.717 C19.6490566,24.018 20.5169349,23.976 21.2030007,23.874 C21.9684212,23.76 23.5585269,22.915 23.8900082,21.99 C24.222494,21.064 24.222494,20.271 24.1230496,20.106 C24.0236053,19.941 23.7574157,19.841 23.3596382,19.643 C22.9618606,19.445 21.0041119,18.486 20.6394825,18.354 C20.2738486,18.222 20.0086635,18.156 19.7434785,18.552 C19.4782935,18.949 18.714882,19.841 18.4828451,20.106 C18.2508082,20.37 18.0187712,20.403 17.6199892,20.205 C17.2222116,20.007 15.9394794,19.588 14.4186834,18.238 C13.2353956,17.188 12.436827,15.89 12.2037856,15.494 C11.9717487,15.097 12.1796779,14.883 12.3785667,14.685 C12.5573657,14.508 12.7773487,14.222 12.9762375,13.991 C13.1751263,13.76 13.2414225,13.594 13.3740151,13.33 C13.5066076,13.065 13.4403113,12.834 13.3408669,12.636 C13.2414225,12.437 12.4448629,10.487 12.1133816,9.694" id="Fill-55" fill="#FFFFFF"></path>
                        </g>
                    </g>
                </g>
            </g>
        </g>
    </g>
</svg>