<?xml version="1.0" encoding="UTF-8"?>
<svg width="50px" height="50px" viewBox="0 0 50 50" version="1.1" xmlns="http://www.w3.org/2000/svg" xmlns:xlink="http://www.w3.org/1999/xlink">
    <!-- Generator: Sketch 43 (38999) - http://www.bohemiancoding.com/sketch -->
    <title>ic_sharing_instagram_grey</title>
    <desc>Created with Sketch.</desc>
    <defs>
        <rect id="path-1" x="0" y="0" width="50" height="50"></rect>
    </defs>
    <g id="assets" stroke="none" stroke-width="1" fill="none" fill-rule="evenodd">
        <g id="--50px" transform="translate(-490.000000, -78.000000)">
            <g id="grey" transform="translate(0.000000, 78.000000)">
                <g id="ic---instagram" transform="translate(490.000000, 0.000000)">
                    <g id="mask---background">
                        <mask id="mask-2" fill="white">
                            <use xlink:href="#path-1"></use>
                        </mask>
                        <use id="Mask" fill="#C9C9C9" xlink:href="#path-1"></use>
                    </g>
                    <g id="ic" transform="translate(12.000000, 12.000000)" fill="#FFFFFF">
                        <path d="M12.8793263,2.3212442 C16.3202896,2.3212442 16.7242065,2.33658281 18.0842307,2.39793729 C19.3419973,2.45417889 20.0220094,2.66380667 20.4770551,2.84275721 C21.0803741,3.07794935 21.5098554,3.35404448 21.9597882,3.80397727 C22.4097209,4.25391007 22.6909289,4.68339137 22.9210082,5.28671035 C23.0948459,5.74175602 23.3095865,6.42176808 23.3658281,7.67953476 C23.4271826,9.0395589 23.4425212,9.44347584 23.4425212,12.8844391 C23.4425212,16.3254025 23.4271826,16.7293194 23.3658281,18.0893435 C23.3095865,19.3471102 23.0999588,20.0271223 22.9210082,20.4821679 C22.6858161,21.0854869 22.4097209,21.5149682 21.9597882,21.964901 C21.5098554,22.4148338 21.0803741,22.6960418 20.4770551,22.9261211 C20.0220094,23.0999588 19.3419973,23.3146994 18.0842307,23.370941 C16.7242065,23.4322955 16.3202896,23.4476341 12.8793263,23.4476341 C9.43836296,23.4476341 9.03444602,23.4322955 7.67442189,23.370941 C6.41665521,23.3146994 5.73664315,23.1050716 5.28159748,22.9261211 C4.6782785,22.6909289 4.2487972,22.4148338 3.7988644,21.964901 C3.3489316,21.5149682 3.06772361,21.0854869 2.83764434,20.4821679 C2.66380667,20.0271223 2.44906601,19.3471102 2.39282441,18.0893435 C2.33146994,16.7293194 2.31613132,16.3254025 2.31613132,12.8844391 C2.31613132,9.44347584 2.33146994,9.0395589 2.39282441,7.67953476 C2.44906601,6.42176808 2.65869379,5.74175602 2.83764434,5.28671035 C3.07283648,4.68339137 3.3489316,4.25391007 3.7988644,3.80397727 C4.2487972,3.35404448 4.6782785,3.07283648 5.28159748,2.84275721 C5.73664315,2.66891954 6.41665521,2.45417889 7.67442189,2.39793729 C9.03444602,2.33146994 9.43836296,2.3212442 12.8793263,2.3212442 L12.8793263,2.3212442 Z M12.8793263,0 C9.38212136,0 8.94241431,0.015338618 7.56705156,0.0766930902 C6.19680169,0.138047562 5.26114599,0.357901087 4.44308636,0.674899194 C3.59434949,1.00212304 2.87854732,1.44694297 2.16274514,2.16274514 C1.44694297,2.87854732 1.00723592,3.59946237 0.674899194,4.44308636 C0.357901087,5.26114599 0.138047562,6.19680169 0.0766930902,7.57216444 C0.015338618,8.94241431 0,9.38212136 0,12.8793263 C0,16.3765312 0.015338618,16.8162382 0.0766930902,18.191601 C0.138047562,19.5618509 0.357901087,20.4975066 0.674899194,21.3206791 C1.00212304,22.1694159 1.44694297,22.8852181 2.16274514,23.6010203 C2.87854732,24.3168225 3.59946237,24.7565295 4.44308636,25.0888662 C5.26114599,25.4058643 6.19680169,25.6257179 7.57216444,25.6870723 C8.94752719,25.7484268 9.38212136,25.7637654 12.8844391,25.7637654 C16.3867569,25.7637654 16.8213511,25.7484268 18.1967139,25.6870723 C19.5669637,25.6257179 20.5026194,25.4058643 21.3257919,25.0888662 C22.1745288,24.7616424 22.890331,24.3168225 23.6061332,23.6010203 C24.3219353,22.8852181 24.7616424,22.1643031 25.0939791,21.3206791 C25.4109772,20.5026194 25.6308307,19.5669637 25.6921852,18.191601 C25.7535397,16.8162382 25.7688783,16.3816441 25.7688783,12.8793263 C25.7688783,9.37700849 25.7535397,8.94241431 25.6921852,7.56705156 C25.6308307,6.19680169 25.4109772,5.26114599 25.0939791,4.43797348 C24.7667553,3.58923662 24.3219353,2.87343445 23.6061332,2.15763227 C22.890331,1.4418301 22.1694159,1.00212304 21.3257919,0.669786321 C20.5077323,0.352788215 19.5720766,0.13293469 18.1967139,0.0715802175 C16.8162382,0.015338618 16.3765312,0 12.8793263,0 L12.8793263,0 L12.8793263,0 Z" id="Shape"></path>
                        <path d="M12.8793263,6.26326903 C9.22873518,6.26326903 6.26326903,9.22362231 6.26326903,12.8793263 C6.26326903,16.5350302 9.22873518,19.4953835 12.8793263,19.4953835 C16.5299174,19.4953835 19.4953835,16.5299174 19.4953835,12.8793263 C19.4953835,9.22873518 16.5299174,6.26326903 12.8793263,6.26326903 L12.8793263,6.26326903 Z M12.8793263,17.1741393 C10.5069534,17.1741393 8.58451323,15.2516992 8.58451323,12.8793263 C8.58451323,10.5069534 10.5069534,8.58451323 12.8793263,8.58451323 C15.2516992,8.58451323 17.1741393,10.5069534 17.1741393,12.8793263 C17.1741393,15.2516992 15.2516992,17.1741393 12.8793263,17.1741393 L12.8793263,17.1741393 Z" id="Shape"></path>
                        <ellipse id="Oval" cx="19.75614" cy="6.00251252" rx="1.54408755" ry="1.54408755"></ellipse>
                    </g>
                </g>
            </g>
        </g>
    </g>
</svg>