<?xml version="1.0" encoding="UTF-8"?>
<svg width="68px" height="68px" viewBox="0 0 68 68" version="1.1" xmlns="http://www.w3.org/2000/svg" xmlns:xlink="http://www.w3.org/1999/xlink">
    <!-- Generator: Sketch 43 (38999) - http://www.bohemiancoding.com/sketch -->
    <title>ic_sharing_tumblr_68</title>
    <desc>Created with Sketch.</desc>
    <defs>
        <rect id="path-1" x="0" y="0" width="68" height="68"></rect>
    </defs>
    <g id="assets" stroke="none" stroke-width="1" fill="none" fill-rule="evenodd">
        <g id="--68px" transform="translate(-78.000000, -78.000000)">
            <g id="colour" transform="translate(0.000000, 78.000000)">
                <g id="ic---tumblr-copy" transform="translate(78.000000, 0.000000)">
                    <mask id="mask-2" fill="white">
                        <use xlink:href="#path-1"></use>
                    </mask>
                    <use id="Rectangle-2" fill="#C9C9C9" xlink:href="#path-1"></use>
                    <path d="M45,31.0212766 L36.75,31.0212766 L36.75,42.0851064 C36.75,44.070922 37.025,45.2056738 39.775,45.2056738 L45,45.2056738 L45,53.7163121 C45,53.7163121 42.25,54 39.225,54 C32.075,54 28.5,49.4609929 28.5,44.3546099 L28.5,31.0212766 L23,31.0212766 L23,23.0780142 C29.6,22.5106383 30.15,17.4042553 30.7,14 L36.75,14 L36.75,22.5106383 L45,22.5106383 L45,31.0212766 Z" id="Path" fill="#FFFFFF" mask="url(#mask-2)"></path>
                </g>
            </g>
        </g>
    </g>
</svg>