<?xml version="1.0" encoding="UTF-8"?>
<svg width="50px" height="50px" viewBox="0 0 50 50" version="1.1" xmlns="http://www.w3.org/2000/svg" xmlns:xlink="http://www.w3.org/1999/xlink">
    <!-- Generator: Sketch 43 (38999) - http://www.bohemiancoding.com/sketch -->
    <title>ic_sharing_mail_grey</title>
    <desc>Created with Sketch.</desc>
    <defs>
        <rect id="path-1" x="0" y="0" width="50" height="50"></rect>
    </defs>
    <g id="assets" stroke="none" stroke-width="1" fill="none" fill-rule="evenodd">
        <g transform="translate(-712.000000, -188.000000)" id="social">
            <g transform="translate(110.000000, 110.000000)">
                <g id="--50px" transform="translate(322.000000, 0.000000)">
                    <g id="grey" transform="translate(0.000000, 78.000000)">
                        <g id="ic---mail" transform="translate(280.000000, 0.000000)">
                            <mask id="mask-2" fill="white">
                                <use xlink:href="#path-1"></use>
                            </mask>
                            <use id="Rectangle-2" fill="#737373" xlink:href="#path-1"></use>
                            <g id="ic-mail" mask="url(#mask-2)" fill="#FFFFFF">
                                <g transform="translate(12.000000, 15.000000)" id="Shape">
                                    <path d="M23.4,0 L2.6,0 C1.17,0 0.013,1.125 0.013,2.5 L0,17.5 C0,18.875 1.17,20 2.6,20 L23.4,20 C24.83,20 26,18.875 26,17.5 L26,2.5 C26,1.125 24.83,0 23.4,0 L23.4,0 Z M23.4,5 L13,11.25 L2.6,5 L2.6,2.5 L13,8.75 L23.4,2.5 L23.4,5 L23.4,5 Z"></path>
                                </g>
                            </g>
                        </g>
                    </g>
                </g>
            </g>
        </g>
    </g>
</svg>