<?xml version="1.0" encoding="UTF-8"?>
<svg width="50px" height="50px" viewBox="0 0 50 50" version="1.1" xmlns="http://www.w3.org/2000/svg" xmlns:xlink="http://www.w3.org/1999/xlink">
    <!-- Generator: Sketch 43 (38999) - http://www.bohemiancoding.com/sketch -->
    <title>ic_sharing_twitter_grey</title>
    <desc>Created with Sketch.</desc>
    <defs></defs>
    <g id="assets" stroke="none" stroke-width="1" fill="none" fill-rule="evenodd">
        <g id="--50px" transform="translate(-140.000000, -78.000000)">
            <g id="grey" transform="translate(0.000000, 78.000000)">
                <g id="ic---twitter" transform="translate(140.000000, 0.000000)">
                    <rect id="Rectangle-11" fill="#C9C9C9" x="0" y="0" width="50" height="50"></rect>
                    <path d="M41.0322581,17.7490495 C39.9644153,18.2152626 38.8158266,18.5305369 37.6109879,18.6725444 C38.8412298,17.9464309 39.7856855,16.7978677 40.2302419,15.4287017 C39.0798387,16.1003343 37.8042339,16.5879825 36.4478831,16.8514554 C35.3609879,15.7118234 33.8132056,15 32.1003024,15 C28.8105847,15 26.1441532,17.6249046 26.1441532,20.8633886 C26.1441532,21.3224566 26.1967742,21.769914 26.2983871,22.1995088 C21.3474798,21.9547916 16.9590726,19.6201537 14.021371,16.0726473 C13.5087702,16.938982 13.2148185,17.9464309 13.2148185,19.0208645 C13.2148185,21.0545181 14.2663306,22.8497063 15.8640121,23.9009186 C14.8878024,23.8705522 13.9696573,23.6070793 13.1667339,23.1676601 C13.1658266,23.1926677 13.1658266,23.2167821 13.1658266,23.2417897 C13.1658266,26.0828315 15.2189516,28.4523014 17.9443548,28.9908578 C17.4444556,29.1248271 16.918246,29.1962774 16.3747984,29.1962774 C15.9910282,29.1962774 15.6181452,29.1596591 15.2543347,29.0917814 C16.0118952,31.4210605 18.211996,33.1162183 20.8185484,33.1635542 C18.7799395,34.7363534 16.2114919,35.6732452 13.4207661,35.6732452 C12.9399194,35.6732452 12.4663306,35.6455582 12,35.5919705 C14.6355847,37.2549758 17.7665323,38.2258065 21.1306452,38.2258065 C32.0866935,38.2258065 38.0773185,29.290949 38.0773185,21.5430593 C38.0773185,21.2885177 38.071875,21.0357624 38.0600806,20.7847932 C39.2240927,19.9577563 40.233871,18.9252997 41.0322581,17.7490495" id="Page-1" fill="#FFFFFF"></path>
                </g>
            </g>
        </g>
    </g>
</svg>