<?xml version="1.0" encoding="UTF-8"?>
<svg width="50px" height="50px" viewBox="0 0 50 50" version="1.1" xmlns="http://www.w3.org/2000/svg" xmlns:xlink="http://www.w3.org/1999/xlink">
    <!-- Generator: Sketch 43 (38999) - http://www.bohemiancoding.com/sketch -->
    <title>ic_sharing_youtube_grey</title>
    <desc>Created with Sketch.</desc>
    <defs>
        <rect id="path-1" x="0" y="0" width="50" height="50"></rect>
    </defs>
    <g id="assets" stroke="none" stroke-width="1" fill="none" fill-rule="evenodd">
        <g id="--50px" transform="translate(-560.000000, -78.000000)">
            <g id="grey" transform="translate(0.000000, 78.000000)">
                <g id="ic_sharing_youtube" transform="translate(560.000000, 0.000000)">
                    <mask id="mask-2" fill="white">
                        <use xlink:href="#path-1"></use>
                    </mask>
                    <use id="Rectangle-2" fill="#C9C9C9" xlink:href="#path-1"></use>
                    <g id="icon" mask="url(#mask-2)">
                        <g transform="translate(8.000000, 13.000000)" id="ic---youtube">
                            <g>
                                <polygon id="The_Sharpness" fill="#000000" opacity="0.12" points="15.0811339 7.69819193 24.0703812 13.7666203 25.3333333 13.1057024"></polygon>
                                <g id="Lozenge" fill="#FFFFFF">
                                    <path d="M33.6916982,5.18871867 C33.6916982,5.18871867 33.3588068,2.83715291 32.340159,1.80166231 C31.0485402,0.44216335 29.5971336,0.435482766 28.9346796,0.355315751 C24.1743322,0.0112656467 17.0371398,0.0112656467 17.0371398,0.0112656467 L17.0238242,0.0112656467 C17.0238242,0.0112656467 9.88663185,0.0112656467 5.12628436,0.355315751 C4.46383041,0.435482766 3.01242376,0.44216335 1.720805,1.80166231 C0.702157215,2.83715291 0.369265782,5.18871867 0.369265782,5.18871867 C0.369265782,5.18871867 0.02971652,7.94780009 0.02971652,10.7102218 L0.02971652,13.2989483 C0.02971652,16.06137 0.369265782,18.8204515 0.369265782,18.8204515 C0.369265782,18.8204515 0.702157215,21.1720172 1.720805,22.2075078 C3.01575267,23.5670068 4.71349898,23.523583 5.46916254,23.6672155 C8.18888554,23.9277583 17.030482,24.0112656 17.030482,24.0112656 C17.030482,24.0112656 24.1743322,24.0012448 28.9346796,23.6538544 C29.6004625,23.5736874 31.0485402,23.5670068 32.340159,22.2075078 C33.3588068,21.1720172 33.6916982,18.8204515 33.6916982,18.8204515 C33.6916982,18.8204515 34.0312475,16.0580297 34.0312475,13.2989483 L34.0312475,10.7102218 C34.0312475,7.94780009 33.6916982,5.18871867 33.6916982,5.18871867 L33.6916982,5.18871867 Z M13.5184774,16.5586646 L13.5184774,6.90012586 L22.7062809,11.746222 L13.5184774,16.5586646 L13.5184774,16.5586646 Z" id="Shape"></path>
                                </g>
                            </g>
                        </g>
                    </g>
                </g>
            </g>
        </g>
    </g>
</svg>