<?xml version="1.0" encoding="UTF-8"?>
<svg width="68px" height="68px" viewBox="0 0 68 68" version="1.1" xmlns="http://www.w3.org/2000/svg" xmlns:xlink="http://www.w3.org/1999/xlink">
    <!-- Generator: Sketch 43 (38999) - http://www.bohemiancoding.com/sketch -->
    <title>ic_sharing_whatsapp_68_grey</title>
    <desc>Created with Sketch.</desc>
    <defs>
        <rect id="path-1" x="0" y="0" width="68" height="68"></rect>
    </defs>
    <g id="assets" stroke="none" stroke-width="1" fill="none" fill-rule="evenodd">
        <g id="--68px" transform="translate(-234.000000, 0.000000)">
            <g id="grey">
                <g id="ic---whatsapp" transform="translate(234.000000, 0.000000)">
                    <mask id="mask-2" fill="white">
                        <use xlink:href="#path-1"></use>
                    </mask>
                    <use id="Rectangle-2" fill="#D8D8D8" xlink:href="#path-1"></use>
                    <rect id="plane---channel" fill="#01E675" mask="url(#mask-2)" x="0" y="0" width="68" height="68"></rect>
                    <g id="ic-whatsapp" mask="url(#mask-2)">
                        <g transform="translate(13.000000, 13.000000)" id="icon">
                            <g>
                                <path d="M0,42 L2.96638097,31.2151875 C1.13645351,28.058625 0.174027684,24.478125 0.175346075,20.811 C0.17930125,9.3358125 9.56097547,0 21.0876727,0 C26.6816081,0.0013125 31.9327616,2.1695625 35.8800259,6.103125 C39.8286085,10.0366875 42.0013178,15.2656875 41.9999994,20.82675 C41.9947258,32.3019375 32.6130516,41.6390625 21.0876727,41.6390625 L21.0876727,41.6390625 L21.078444,41.6390625 C17.5794328,41.63775 14.1397493,40.763625 11.0850361,39.1059375 L0,42 Z" id="ic---contactWhatsapp" fill="#FFFFFF"></path>
                                <path d="M11.1739998,36.1015966 L11.8307048,36.4920551 C14.5954194,38.1317077 17.762895,38.9986348 20.9918086,39 L21.0000004,39 C30.9202061,39 38.9959034,30.9273389 38.9999993,21.0061436 C39.0013645,16.1991353 37.1309156,11.6774622 33.7327059,8.27665061 C30.3344961,4.87583905 25.8140171,3.00136524 21.0068268,3 C11.0784294,3 3.00409734,11.0712958 3.00000147,20.9924912 C2.99863618,24.3919375 3.95024413,27.7026433 5.75242848,30.5682809 L6.17976462,31.2481702 L4.36119677,37.8886951 L11.1739998,36.1015966 Z" id="Fill-54" fill="#01E675"></path>
                                <path d="M15.5926553,11.9284397 C15.152891,10.8943131 14.7076637,11.034783 14.3744261,11.0187293 C14.058943,11.0026756 13.6983909,11 13.3378387,11 C12.9759209,11 12.3900236,11.1324431 11.8942644,11.6635535 C11.3985053,12.193326 10,13.4762852 10,16.0850135 C10,18.6937418 11.9393335,21.2141747 12.2097476,21.5686942 C12.4801617,21.9218758 16.0269567,27.275789 21.4557247,29.5714699 C22.7477032,30.1172961 23.7556103,30.4437216 24.5422695,30.6885407 C25.8383452,31.0912214 27.018334,31.0350334 27.9511261,30.8985768 C28.9918107,30.7460665 31.1537578,29.6156176 31.6044479,28.3781439 C32.0565038,27.1393324 32.0565038,26.0784496 31.9212968,25.857711 C31.7860897,25.6369725 31.4241719,25.5031916 30.8833437,25.2383053 C30.3425155,24.973419 27.680712,23.6904598 27.1849528,23.513869 C26.6878279,23.3372782 26.3272757,23.2489827 25.9667236,23.7787553 C25.6061715,24.3098656 24.5682184,25.5031916 24.2527352,25.857711 C23.9372521,26.2108927 23.621769,26.2550404 23.0795751,25.9901542 C22.5387469,25.7252679 20.7947125,25.1647258 18.7270006,23.3586831 C17.1181732,21.9539833 16.0324197,20.2175067 15.7155708,19.6877342 C15.4000877,19.1566238 15.6827933,18.8703326 15.9532074,18.6054464 C16.196307,18.3686541 16.4954014,17.9860406 16.7658155,17.6770066 C17.0362296,17.3679727 17.1263676,17.1458963 17.3066437,16.7927146 C17.4869198,16.4381952 17.3967817,16.1291612 17.2615747,15.8642749 C17.1263676,15.5980509 16.0433455,12.9893226 15.5926553,11.9284397" id="Fill-55" fill="#FFFFFF"></path>
                            </g>
                        </g>
                    </g>
                </g>
            </g>
        </g>
    </g>
</svg>